<?xml version="1.0" encoding="UTF-8"?><svg id="a" xmlns="http://www.w3.org/2000/svg" viewBox="0 0 64 64"><defs><style>.b{fill:#fff;}.c{fill:#dd7051;}</style></defs><rect class="c" width="64" height="64"/><path class="b" d="M18.82,44.21c-1.64,0-3.22-.29-4.76-.86s-2.92-1.4-4.14-2.48-2.2-2.37-2.91-3.87-1.08-3.19-1.08-5.05.34-3.48,1.01-4.97,1.61-2.77,2.8-3.85,2.56-1.9,4.12-2.48,3.21-.86,4.96-.86c1.84,0,3.56.28,5.15.84s2.99,1.37,4.18,2.43,2.13,2.35,2.8,3.86,1.01,3.23,1.01,5.15-.35,3.54-1.06,5.03-1.68,2.77-2.91,3.83-2.63,1.87-4.21,2.43-3.23.85-4.98.85ZM17.81,36.66c.51,0,1.06-.25,1.64-.75s1.13-1.14,1.64-1.91.93-1.59,1.26-2.46.49-1.66.49-2.38c0-.68-.18-1.24-.54-1.69s-.96-.67-1.82-.67c-.52,0-1.08.24-1.68.73s-1.15,1.12-1.67,1.89-.94,1.58-1.27,2.44-.49,1.65-.49,2.38.19,1.27.56,1.73,1,.68,1.88.68Z"/><path class="b" d="M34.86,20.44h2.35l12.67,9.04v-9.04h8.18v23.2h-3.12l-11.93-7.98v7.98h-8.15v-23.2Z"/></svg>