
<svg xmlns="http://www.w3.org/2000/svg" version="1.1" xmlns:xlink="http://www.w3.org/1999/xlink" preserveAspectRatio="none" x="0px" y="0px" width="1920px" height="1600px" viewBox="0 0 1920 1600">
<defs>
<g id="o_0_Layer0_0_FILL">
<path fill="#FFFBF0" stroke="none" d="
M 404.55 81.1
Q 387.45 74.95 367.5 74.95 347.5 74.95 330.4 81.1 313.15 87.35 300.8 98.7 288.25 110.25 281.2 126.4 274.05 142.8 274.05 162.9 274.05 177.3 277.7 189.75 279.15 194.95 281.2 199.75 283.75 205.7 286.6 210.25 292.4 220.2 300.8 228.15 313.2 239.9 330.4 246.3 347.5 252.75 367.5 252.75 387.45 252.75 404.55 246.3 421.65 239.95 434.25 228.15 446.9 216.3 454 199.75 461.1 183.15 461.1 162.9 461.1 142.7 454 126.4 446.95 110.25 434.25 98.7 421.7 87.35 404.55 81.1
M 391.25 136.65
Q 395.8 141.35 398.25 148.05 400.75 154.95 400.75 162.9 400.75 171.1 398.25 178.15 395.8 184.95 391.25 190 387.15 194.6 381.6 197.3
L 380.65 197.75
Q 374.6 200.45 367.5 200.45 360.3 200.45 354.15 197.75 347.95 194.95 343.6 190 339.2 185 336.7 178.15 334.2 171.1 334.2 162.9 334.2 154.95 336.7 148.05 339.1 141.55 343.2 137.1
L 343.6 136.65
Q 347.9 132.1 354.15 129.4 360.25 126.8 367.5 126.8 374.65 126.8 380.65 129.4 386.8 132.05 391.25 136.65 Z"/>
</g>
</defs>

<g transform="matrix( 1.183380126953125, 0, 0, 1.183380126953125, -179.95,171.5) ">
<g transform="matrix( 1.07073974609375, 0, 0, 1.07073974609375, 861.45,416.95) ">
<g transform="matrix( 1.20843505859375, 0, 0, 1.20843505859375, -331.2,-90.55) ">
<use xlink:href="#o_0_Layer0_0_FILL"/>
</g>
</g>
</g>
</svg>
