
<svg xmlns="http://www.w3.org/2000/svg" version="1.1" xmlns:xlink="http://www.w3.org/1999/xlink" preserveAspectRatio="none" x="0px" y="0px" width="1920px" height="1600px" viewBox="0 0 1920 1600">
<defs>
<g id="e_0_Layer0_0_FILL">
<path fill="#FFFBF0" stroke="none" d="
M 706.5 96.35
Q 704.75 94.6 702.25 94.6
L 618.9 94.6
Q 616.45 94.6 614.7 96.35 612.95 98.1 612.95 100.55
L 612.95 227.15
Q 612.95 229.6 614.7 231.35 616.45 233.1 618.9 233.1
L 705.6 233.1
Q 708.1 233.1 709.8 231.35 711.55 229.65 711.55 227.15
L 711.55 200.35
Q 711.55 197.85 709.8 196.1 708.05 194.35 705.6 194.35
L 662.75 194.35
Q 660.3 194.35 658.55 192.6 656.8 190.9 656.8 188.4
L 656.8 187.45
Q 656.8 184.95 658.55 183.2 660.3 181.45 662.75 181.45
L 699.15 181.45
Q 701.65 181.45 703.35 179.7 705.1 178 705.1 175.5
L 705.1 151.25
Q 705.1 148.75 703.35 147 701.6 145.25 699.15 145.25
L 662.75 145.25
Q 660.2 145.25 658.55 143.5 656.8 141.85 656.8 139.3 656.8 136.85 658.55 135.1 660.3 133.35 662.75 133.35
L 702.25 133.35
Q 704.75 133.35 706.5 131.6 708.25 129.85 708.25 127.35
L 708.25 100.55
Q 708.25 98.1 706.5 96.35 Z"/>
</g>

<g id="r_0_Layer0_0_FILL">
<path fill="#FFFBF0" stroke="none" d="
M 553.2 96.65
Q 543.05 94.6 532.95 94.6
L 479.25 94.6
Q 476.75 94.6 475 96.35 473.25 98.1 473.25 100.55
L 473.25 227.15
Q 473.25 229.6 475 231.35 476.75 233.1 479.25 233.1
L 512.5 233.1
Q 515 233.1 516.7 231.35 518.45 229.65 518.45 227.15
L 518.45 183.6 519.8 183.6 544.7 229.95
Q 545.45 231.4 546.9 232.25 548.3 233.1 549.95 233.1
L 589.05 233.1
Q 592.55 233.1 594.3 230.05 596 226.95 594.15 224
L 568.1 182.4
Q 566.8 180.3 567.3 177.9 567.85 175.45 569.95 174.2 577.9 169.4 582.65 162 588.9 152.3 588.9 139.6 588.9 126.55 584 117.75 579.15 109.05 571.2 103.9 563.3 98.7 553.2 96.65
M 543.3 141.55
Q 543.3 145.25 541.65 147.5 539.95 149.8 537.6 151.05 535.1 152.35 532.35 152.7 529.8 153.1 527.2 153.1
L 524.05 153.1
Q 521.55 153.1 519.8 151.35 518.05 149.6 518.05 147.15
L 518.05 136.75
Q 518.05 134.3 519.8 132.55 521.55 130.8 524.05 130.8
L 529.15 130.8
Q 531.25 130.8 533.8 131.1 536.05 131.3 538.45 132.45 540.55 133.45 541.95 135.7 543.3 137.8 543.3 141.55 Z"/>
</g>

<g id="o_0_Layer0_0_FILL">
<path fill="#FFFBF0" stroke="none" d="
M 404.55 81.1
Q 387.45 74.95 367.5 74.95 347.5 74.95 330.4 81.1 313.15 87.35 300.8 98.7 288.25 110.25 281.2 126.4 274.05 142.8 274.05 162.9 274.05 177.3 277.7 189.75 279.15 194.95 281.2 199.75 283.75 205.7 286.6 210.25 292.4 220.2 300.8 228.15 313.2 239.9 330.4 246.3 347.5 252.75 367.5 252.75 387.45 252.75 404.55 246.3 421.65 239.95 434.25 228.15 446.9 216.3 454 199.75 461.1 183.15 461.1 162.9 461.1 142.7 454 126.4 446.95 110.25 434.25 98.7 421.7 87.35 404.55 81.1
M 391.25 136.65
Q 395.8 141.35 398.25 148.05 400.75 154.95 400.75 162.9 400.75 171.1 398.25 178.15 395.8 184.95 391.25 190 387.15 194.6 381.6 197.3
L 380.65 197.75
Q 374.6 200.45 367.5 200.45 360.3 200.45 354.15 197.75 347.95 194.95 343.6 190 339.2 185 336.7 178.15 334.2 171.1 334.2 162.9 334.2 154.95 336.7 148.05 339.1 141.55 343.2 137.1
L 343.6 136.65
Q 347.9 132.1 354.15 129.4 360.25 126.8 367.5 126.8 374.65 126.8 380.65 129.4 386.8 132.05 391.25 136.65 Z"/>
</g>

<g id="h_0_Layer0_0_FILL">
<path fill="#FFFBF0" stroke="none" d="
M 260.15 96.35
Q 258.45 94.6 255.95 94.6
L 221.15 94.6
Q 218.65 94.6 216.9 96.35 215.15 98.1 215.15 100.55
L 215.15 135.6
Q 215.15 138.1 213.4 139.8 211.7 141.55 209.2 141.55
L 183.15 141.55
Q 180.7 141.55 178.95 139.8 177.2 138.05 177.2 135.6
L 177.2 100.55
Q 177.2 98.1 175.45 96.35 173.75 94.6 171.25 94.6
L 136.8 94.6
Q 134.3 94.6 132.55 96.35 130.8 98.1 130.8 100.55
L 130.8 227.15
Q 130.8 229.6 132.55 231.35 134.3 233.1 136.8 233.1
L 171.4 233.1
Q 173.9 233.1 175.65 231.35 177.4 229.65 177.4 227.15
L 177.4 186.45
Q 177.4 184 179.15 182.2 180.9 180.45 183.35 180.45
L 209.4 180.45
Q 211.85 180.45 213.6 182.2 215.35 183.95 215.35 186.45
L 215.35 227.15
Q 215.35 229.65 217.1 231.35 218.85 233.1 221.35 233.1
L 255.95 233.1
Q 258.45 233.1 260.15 231.35 261.9 229.65 261.9 227.15
L 261.9 100.55
Q 261.9 98.1 260.15 96.35 Z"/>
</g>

<g id="s_0_Layer0_0_FILL">
<path fill="#FFFBF0" stroke="none" d="
M 63.55 90.7
Q 53.35 90.7 43 93.25 32.6 95.8 24.3 101.55 15.95 107.35 10.7 116.35 5.4 125.4 5.4 138.3 5.4 147.45 8.35 154.1 11.35 160.75 16.3 165.35 21.3 170.1 27.75 173.3 34.2 176.55 41.25 178.85 49.65 181.65 53.25 183 58.25 184.9 60.8 186.25 63.6 187.7 64.6 189.1 65.7 190.5 65.7 192.4 65.7 196.15 62.45 197.5 59.25 198.85 55.3 198.85 46.65 198.85 38.6 194.75 33.35 192.15 29.65 189.15 27.8 187.7 25.45 187.85 23.1 188.05 21.55 189.75
L 1.55 211.5
Q -0.3 213.45 0 216.15 0.25 218.8 2.45 220.4 5.3 222.45 9.15 224.65 15.8 228.45 23.35 231.3 31.1 234.15 38.95 235.55 46.85 237 55.5 237 66.05 237 76.25 234 86.45 230.9 94.55 224.8 102.75 218.6 107.65 209.35 112.65 199.95 112.65 187.5 112.65 176.75 108.15 169.55 103.65 162.3 96.7 157.3 89.55 152.25 81.55 149.15 72.35 145.7 65.9 143.7 58.1 141.1 55.4 139.75 52.15 138.25 52.15 135.1 52.15 131.75 55.3 130.3 58.35 128.85 63.55 128.85 69.05 128.85 75.85 131.85 80.1 133.75 83.45 136.65 85.25 138.25 87.65 138.15 90 138.1 91.7 136.4
L 111.85 115.8
Q 113.75 113.9 113.55 111.2 113.35 108.5 111.15 106.85 102.25 100 91.4 95.95 77.25 90.7 63.55 90.7 Z"/>
</g>

<g id="n_0_Layer0_0_FILL">
<path fill="#F06847" stroke="none" d="
M 262.4 6.15
Q 262.4 4.45 261.2 3.3 260.05 2.1 258.35 2.1
L 243.35 2.1
Q 241.65 2.1 240.4 3.35 239.2 4.6 239.25 6.3
L 240.2 39.05 239.75 39.05 220.15 4.15
Q 219.65 3.2 218.65 2.65 217.7 2.1 216.6 2.1
L 198.65 2.1
Q 196.95 2.1 195.8 3.3 194.6 4.45 194.6 6.15
L 194.6 70.9
Q 194.6 72.6 195.8 73.75 196.95 74.95 198.65 74.95
L 213.65 74.95
Q 215.4 74.95 216.6 73.7 217.8 72.45 217.7 70.75
L 216.8 40.15 217.25 40.15 236.2 72.95
Q 237.4 74.95 239.75 74.95
L 258.35 74.95
Q 260.05 74.95 261.2 73.75 262.4 72.6 262.4 70.9
L 262.4 6.15 Z"/>
</g>

<g id="o2_0_Layer0_0_FILL">
<path fill="#F06847" stroke="none" d="
M 184.3 38.1
Q 184.3 29.4 181.2 22.3 178.15 15.25 172.65 10.3 167.3 5.45 159.8 2.7 152.4 0 143.7 0 135.1 0 127.65 2.7 120.2 5.4 114.85 10.3 109.4 15.3 106.35 22.3 103.25 29.4 103.25 38.1 103.25 46.8 106.35 54.05 109.4 61.3 114.85 66.35 120.3 71.5 127.65 74.25 135.15 77.05 143.7 77.05 152.3 77.05 159.8 74.25 167.15 71.5 172.65 66.35 178.15 61.35 181.2 54.05 184.3 46.8 184.3 38.1
M 143.7 22.45
Q 146.75 22.45 149.45 23.6 152.05 24.7 154 26.75 156.05 28.9 157.05 31.7 158.15 34.75 158.15 38.1 158.15 41.55 157.05 44.7 156.05 47.55 154 49.85 152.05 52 149.45 53.2 146.85 54.4 143.7 54.4 140.65 54.4 137.95 53.2 135.3 52 133.35 49.85 131.4 47.6 130.4 44.7 129.3 41.75 129.3 38.1 129.3 34.55 130.4 31.7 131.4 28.85 133.35 26.75 135.35 24.7 137.95 23.6 140.7 22.45 143.7 22.45 Z"/>
</g>

<g id="splash_5_Layer1_0_FILL">
<path fill="#F06847" stroke="none" d="
M 36.95 -6.55
Q 34.6 -6.4 33 -4.85 30.8 -1.75 28.75 1.9 28.05 2.55 27.75 3.45 27.5 4.75 28.1 5.7 32 6.4 36.3 6.45 38.55 6.6 40.4 5.4 42.25 4.3 43.05 2.35 43.85 0.4 43.45 -1.7 42.95 -3.85 41.2 -5.25 39.3 -6.7 36.95 -6.55 Z"/>
</g>

<g id="splash_5_Layer0_0_FILL">
<path fill="#F06847" stroke="none" d="
M 42.75 27.05
Q 41.85 26.95 40.9 27.05 38.55 27.2 36.65 28.35 35.5 29 34.6 30.05 32.6 32.25 30.7 34.7 27.9 38.3 25.6 41.95 25.6 42.05 25.55 42.05
L 25.5 42.15
Q 25.55 42.4 25.75 42.45 29.65 43.7 33.95 44.55 37.25 45.2 40.45 45.55 41.75 45.7 42.95 45.5 44.7 45.25 46.3 44.25 48.8 42.75 50 40.05 50.1 39.85 50.15 39.65 51.15 37.05 50.6 34.45 50.15 32.3 48.8 30.5 48.2 29.75 47.45 29.1 45.35 27.4 42.75 27.05 Z"/>
</g>
</defs>

<g transform="matrix( 1.183380126953125, 0, 0, 1.183380126953125, -179.95,171.5) ">
<g transform="matrix( 1, 0, 0, 0.9590301513671875, 1322.05,438.6) ">
<g transform="matrix( 1.4498138427734375, 0, 0, 1.4498138427734375, -888.65,-137.15) ">
<use xlink:href="#e_0_Layer0_0_FILL"/>
</g>
</g>

<g transform="matrix( 1, 0, 0, 1, 1119.5,430.15) ">
<g transform="matrix( 1.4498138427734375, 0, 0, 1.4498138427734375, -686.1,-137.15) ">
<use xlink:href="#r_0_Layer0_0_FILL"/>
</g>
</g>

<g transform="matrix( 1, 0, 0, 1, 869.35,424.5) ">
<g transform="matrix( 1.20843505859375, 0, 0, 1.20843505859375, -331.2,-90.55) ">
<use xlink:href="#o_0_Layer0_0_FILL"/>
</g>
</g>

<g transform="matrix( 1, 0, 0, 1, 655.1,430.15) ">
<g transform="matrix( 1.4498138427734375, 0, 0, 1.4498138427734375, -189.65,-137.15) ">
<use xlink:href="#h_0_Layer0_0_FILL"/>
</g>
</g>

<g transform="matrix( 1, 0, 0, 1, 465.4,424.5) ">
<g transform="matrix( 1.4498138427734375, 0, 0, 1.4498138427734375, 0.05,-131.5) ">
<use xlink:href="#s_0_Layer0_0_FILL"/>
</g>
</g>

<g transform="matrix( 1, 0, 0, 1, 747.6,296.05) ">
<g transform="matrix( 1.4498138427734375, 0, 0, 1.4498138427734375, -282.15,-3.05) ">
<use xlink:href="#n_0_Layer0_0_FILL"/>
</g>
</g>

<g transform="matrix( 1, 0, 0, 1, 615.15,293) ">
<g transform="matrix( 1.4498138427734375, 0, 0, 1.4498138427734375, -149.7,0) ">
<use xlink:href="#o2_0_Layer0_0_FILL"/>
</g>
</g>

<g transform="matrix( 1, 0, 0, 1, 868.25,355.35) ">
<g transform="matrix( 1, 0, 0, 1, 0,0) ">
<use xlink:href="#splash_5_Layer1_0_FILL"/>
</g>

<g transform="matrix( 1, 0, 0, 1, 0,0) ">
<use xlink:href="#splash_5_Layer0_0_FILL"/>
</g>
</g>
</g>
</svg>
