
<svg xmlns="http://www.w3.org/2000/svg" version="1.1" xmlns:xlink="http://www.w3.org/1999/xlink" preserveAspectRatio="none" x="0px" y="0px" width="1920px" height="1600px" viewBox="0 0 1920 1600">
<defs>
<g id="Symbol_1_117_Layer6_0_FILL">
<path fill="#F06847" stroke="none" d="
M 592.55 493.3
Q 595.95 493.2 598.4 490.75
L 627.6 460.9
Q 630.35 458.15 630.1 454.2 629.8 450.3 626.6 447.9 613.7 438 597.95 432.1 577.45 424.5 557.6 424.5 542.8 424.5 527.8 428.2 512.7 431.9 500.7 440.25 488.55 448.65 480.95 461.7 473.3 474.8 473.3 493.5 473.3 506.8 477.55 516.4 481.9 526.05 489.1 532.75 496.35 539.6 505.7 544.25 515.05 548.95 525.25 552.3 537.45 556.35 542.65 558.3 549.9 561.05 553.6 563.05 557.65 565.15 559.1 567.15 560.7 569.2 560.7 571.95 560.7 577.4 556 579.35 551.35 581.3 545.6 581.3 533.1 581.3 521.4 575.35 513.8 571.6 508.45 567.25 505.75 565.15 502.35 565.35 498.95 565.65 496.7 568.1
L 467.7 599.65
Q 465 602.45 465.45 606.4 465.8 610.2 469 612.55 473.15 615.5 478.7 618.7 488.35 624.2 499.3 628.35 510.55 632.45 521.9 634.5 533.35 636.6 545.9 636.6 561.2 636.6 576 632.25 590.8 627.75 602.55 618.9 614.4 609.95 621.5 596.5 628.75 582.9 628.75 564.85 628.75 549.25 622.25 538.8 615.7 528.3 605.65 521.05 595.3 513.75 583.7 509.25 570.35 504.25 561 501.35 549.7 497.55 545.75 495.6 541.05 493.45 541.05 488.85 541.05 484 545.6 481.9 550.05 479.8 557.6 479.8 565.55 479.8 575.4 484.15 581.6 486.9 586.45 491.1 589.05 493.45 592.55 493.3
M 1261.55 443.65
Q 1250.1 436.1 1235.45 433.1 1220.7 430.15 1206.1 430.15
L 1128.2 430.15
Q 1124.6 430.15 1122.05 432.7 1119.5 435.25 1119.5 438.8
L 1119.5 622.35
Q 1119.5 625.9 1122.05 628.4 1124.6 630.95 1128.2 630.95
L 1176.45 630.95
Q 1180.05 630.95 1182.5 628.4 1185.05 625.95 1185.05 622.35
L 1185.05 559.2 1187 559.2 1223.1 626.4
Q 1224.2 628.5 1226.3 629.7 1228.35 630.95 1230.75 630.95
L 1287.4 630.95
Q 1292.5 630.95 1295 626.55 1297.5 622.05 1294.8 617.75
L 1257.05 557.45
Q 1255.15 554.4 1255.9 550.9 1256.7 547.35 1259.7 545.55 1271.25 538.6 1278.15 527.85 1287.2 513.8 1287.2 495.4 1287.2 476.45 1280.1 463.7 1273.05 451.1 1261.55 443.65
M 1207.3 483.05
Q 1210.55 483.35 1214.05 485.05 1217.1 486.5 1219.15 489.75 1221.1 492.8 1221.1 498.2 1221.1 503.6 1218.7 506.85 1216.25 510.2 1212.8 512 1209.2 513.9 1205.2 514.4 1201.5 514.95 1197.75 514.95
L 1193.15 514.95
Q 1189.55 514.95 1187 512.45 1184.5 509.9 1184.5 506.35
L 1184.5 491.25
Q 1184.5 487.7 1187 485.15 1189.55 482.65 1193.15 482.65
L 1200.55 482.65
Q 1203.6 482.65 1207.3 483.05
M 842.6 432.7
Q 840.15 430.15 836.55 430.15
L 786.1 430.15
Q 782.45 430.15 779.9 432.7 777.4 435.25 777.4 438.8
L 777.4 489.6
Q 777.4 493.2 774.85 495.7 772.4 498.2 768.75 498.2
L 731 498.2
Q 727.45 498.2 724.9 495.7 722.35 493.15 722.35 489.6
L 722.35 438.8
Q 722.35 435.25 719.8 432.7 717.35 430.15 713.75 430.15
L 663.8 430.15
Q 660.15 430.15 657.6 432.7 655.1 435.25 655.1 438.8
L 655.1 622.35
Q 655.1 625.9 657.6 628.4 660.15 630.95 663.8 630.95
L 713.95 630.95
Q 717.55 630.95 720.1 628.4 722.65 625.95 722.65 622.35
L 722.65 563.3
Q 722.65 559.75 725.2 557.15 727.7 554.6 731.25 554.6
L 769.05 554.6
Q 772.6 554.6 775.15 557.15 777.65 559.7 777.65 563.3
L 777.65 622.35
Q 777.65 625.95 780.2 628.4 782.75 630.95 786.35 630.95
L 836.55 630.95
Q 840.15 630.95 842.6 628.4 845.15 625.95 845.15 622.35
L 845.15 438.8
Q 845.15 435.25 842.6 432.7
M 937.4 431.95
Q 916.55 439.5 901.65 453.2 886.5 467.2 877.95 486.7 869.3 506.5 869.3 530.8 869.3 548.2 873.75 563.25 875.5 569.55 877.95 575.35 881.05 582.55 884.5 588 891.5 600.05 901.65 609.65 916.65 623.85 937.4 631.6 958.1 639.4 982.25 639.4 1006.35 639.4 1027 631.6 1047.7 623.9 1062.9 609.65 1078.2 595.35 1086.8 575.35 1095.35 555.25 1095.35 530.8 1095.35 506.4 1086.8 486.7 1078.25 467.2 1062.9 453.2 1047.75 439.5 1027 431.95 1006.35 424.5 982.25 424.5 958.1 424.5 937.4 431.95
M 952.9 499.65
L 953.35 499.1
Q 958.55 493.6 966.1 490.3 973.5 487.2 982.25 487.2 990.9 487.2 998.15 490.3 1005.55 493.5 1010.95 499.1 1016.45 504.75 1019.4 512.85 1022.45 521.2 1022.45 530.8 1022.45 540.7 1019.4 549.25 1016.45 557.45 1010.95 563.55 1006 569.1 999.3 572.35
L 998.15 572.9
Q 990.85 576.2 982.25 576.2 973.55 576.2 966.1 572.9 958.6 569.55 953.35 563.55 948.05 557.5 945.05 549.25 942 540.7 942 530.8 942 521.2 945.05 512.85 947.95 505 952.9 499.65
M 1460.25 477.65
L 1460.25 438.8
Q 1460.25 435.25 1457.7 432.7 1455.15 430.15 1451.55 430.15
L 1330.7 430.15
Q 1327.15 430.15 1324.6 432.7 1322.05 435.25 1322.05 438.8
L 1322.05 622.35
Q 1322.05 625.9 1324.6 628.4 1327.15 630.95 1330.7 630.95
L 1456.4 630.95
Q 1460 630.95 1462.5 628.4 1465 625.95 1465 622.35
L 1465 583.45
Q 1465 579.85 1462.5 577.3 1459.95 574.75 1456.4 574.75
L 1394.25 574.75
Q 1390.7 574.75 1388.15 572.25 1385.65 569.75 1385.65 566.15
L 1385.65 564.75
Q 1385.65 561.15 1388.15 558.6 1390.7 556.05 1394.25 556.05
L 1447.05 556.05
Q 1450.65 556.05 1453.15 553.55 1455.65 551.05 1455.65 547.45
L 1455.65 512.3
Q 1455.65 508.65 1453.15 506.1 1450.6 503.6 1447.05 503.6
L 1394.25 503.6
Q 1390.55 503.6 1388.15 501.05 1385.65 498.65 1385.65 494.95 1385.65 491.4 1388.15 488.85 1390.7 486.35 1394.25 486.35
L 1451.55 486.35
Q 1455.15 486.35 1457.7 483.8 1460.25 481.25 1460.25 477.65 Z"/>

<path fill="#F6C746" stroke="none" d="
M 673.8 293
Q 661.3 293 650.5 296.9 639.7 300.85 631.95 307.95 624.05 315.2 619.65 325.35 615.15 335.6 615.15 348.25 615.15 360.85 619.65 371.35 624.05 381.85 631.95 389.2 639.85 396.65 650.5 400.65 661.4 404.7 673.8 404.7 686.25 404.7 697.15 400.65 707.8 396.65 715.75 389.2 723.75 381.95 728.15 371.35 732.65 360.85 732.65 348.25 732.65 335.6 728.15 325.35 723.75 315.1 715.75 307.95 708 300.9 697.15 296.9 686.4 293 673.8 293
M 688.7 331.8
Q 691.7 334.9 693.15 338.95 694.75 343.4 694.75 348.25 694.75 353.25 693.15 357.8 691.7 361.95 688.7 365.25 685.9 368.4 682.1 370.15 678.35 371.85 673.8 371.85 669.35 371.85 665.45 370.15 661.6 368.4 658.8 365.25 655.95 362 654.5 357.8 652.9 353.55 652.9 348.25 652.9 343.1 654.5 338.95 655.95 334.85 658.8 331.8 661.7 328.8 665.45 327.2 669.45 325.55 673.8 325.55 678.2 325.55 682.1 327.2 685.9 328.8 688.7 331.8
M 782.45 296.85
Q 781.05 296.05 779.5 296.05
L 753.45 296.05
Q 751 296.05 749.3 297.8 747.6 299.45 747.6 301.9
L 747.6 395.8
Q 747.6 398.25 749.3 399.9 751 401.65 753.45 401.65
L 775.2 401.65
Q 777.75 401.65 779.5 399.85 781.2 398.05 781.05 395.55
L 779.75 351.2 780.4 351.2 807.9 398.75
Q 809.65 401.65 813.05 401.65
L 840 401.65
Q 842.45 401.65 844.15 399.9 845.9 398.25 845.9 395.8
L 845.9 301.9
Q 845.9 299.45 844.15 297.8 842.45 296.05 840 296.05
L 818.25 296.05
Q 815.8 296.05 814 297.85 812.25 299.65 812.3 302.15
L 813.7 349.6 813.05 349.6 784.65 299
Q 783.9 297.65 782.45 296.85 Z"/>
</g>

<g id="Mask_Symbol_1_117_5_MASK_0_FILL">
<path fill="#FFFFFF" stroke="none" d="
M 575.4 484.15
Q 581.6 486.9 586.45 491.1 589.05 493.45 592.55 493.3 595.95 493.2 598.4 490.75
L 627.6 460.9
Q 630.35 458.15 630.1 454.2 629.8 450.3 626.6 447.9 613.7 438 597.95 432.1 577.45 424.5 557.6 424.5 542.8 424.5 527.8 428.2 512.7 431.9 500.7 440.25 488.55 448.65 480.95 461.7 473.3 474.8 473.3 493.5 473.3 506.8 477.55 516.4 481.9 526.05 489.1 532.75 496.35 539.6 505.7 544.25 515.05 548.95 525.25 552.3 537.45 556.35 542.65 558.3 549.9 561.05 553.6 563.05 557.65 565.15 559.1 567.15 560.7 569.2 560.7 571.95 560.7 577.4 556 579.35 551.35 581.3 545.6 581.3 533.1 581.3 521.4 575.35 515.6818359375 572.528515625 511.2 569.35
L 511.25 569.35
Q 510.4732421875 568.78515625 509.7 568.2 509.0580078125 567.7443359375 508.45 567.25 507.6302734375 566.6123046875 506.75 566.15 472.4017578125 543.1 430.85 543.1 400.9 543.1 374.1 555.3 348.1 567.25 329 588.75
L 372.75 628.25
Q 383.65 616.05 398.5 609.4 413.9 602.5 430.85 602.5 451.5384765625 602.5 468.45 612.1 468.7138671875 612.33984375 469 612.55 473.15 615.5 478.7 618.7 488.35 624.2 499.3 628.35 510.55 632.45 521.9 634.5 533.35 636.6 545.9 636.6 561.2 636.6 576 632.25 590.8 627.75 602.55 618.9 614.4 609.95 621.5 596.5 628.75 582.9 628.75 564.85 628.75 549.25 622.25 538.8 615.7 528.3 605.65 521.05 595.3 513.75 583.7 509.25 570.35 504.25 561 501.35 549.7 497.55 545.75 495.6 541.05 493.45 541.05 488.85 541.05 484 545.6 481.9 550.05 479.8 557.6 479.8 565.55 479.8 575.4 484.15
M 1280.1 463.7
Q 1273.05 451.1 1261.55 443.65 1250.1 436.1 1235.45 433.1 1220.7 430.15 1206.1 430.15
L 1128.2 430.15
Q 1124.6 430.15 1122.05 432.7 1119.5 435.25 1119.5 438.8
L 1119.5 622.35
Q 1119.5 625.9 1122.05 628.4 1124.6 630.95 1128.2 630.95
L 1176.45 630.95
Q 1180.05 630.95 1182.5 628.4 1185.05 625.95 1185.05 622.35
L 1185.05 559.2 1187 559.2 1223.1 626.4
Q 1224.2 628.5 1226.3 629.7 1228.35 630.95 1230.75 630.95
L 1287.4 630.95
Q 1292.5 630.95 1295 626.55 1297.5 622.05 1294.8 617.75
L 1257.05 557.45
Q 1255.15 554.4 1255.9 550.9 1256.7 547.35 1259.7 545.55 1271.25 538.6 1278.15 527.85 1287.2 513.8 1287.2 495.4 1287.2 476.45 1280.1 463.7
M 1184.5 491.25
Q 1184.5 487.7 1187 485.15 1189.55 482.65 1193.15 482.65
L 1200.55 482.65
Q 1203.6 482.65 1207.3 483.05 1210.55 483.35 1214.05 485.05 1217.1 486.5 1219.15 489.75 1221.1 492.8 1221.1 498.2 1221.1 503.6 1218.7 506.85 1216.25 510.2 1212.8 512 1209.2 513.9 1205.2 514.4 1201.5 514.95 1197.75 514.95
L 1193.15 514.95
Q 1189.55 514.95 1187 512.45 1184.5 509.9 1184.5 506.35
L 1184.5 491.25
M 845.15 438.8
Q 845.15 435.25 842.6 432.7 840.15 430.15 836.55 430.15
L 786.1 430.15
Q 782.45 430.15 779.9 432.7 777.4 435.25 777.4 438.8
L 777.4 489.6
Q 777.4 493.2 774.85 495.7 772.4 498.2 768.75 498.2
L 731 498.2
Q 727.45 498.2 724.9 495.7 722.35 493.15 722.35 489.6
L 722.35 438.8
Q 722.35 435.25 719.8 432.7 717.35 430.15 713.75 430.15
L 663.8 430.15
Q 660.15 430.15 657.6 432.7 655.1 435.25 655.1 438.8
L 655.1 622.35
Q 655.1 625.9 657.6 628.4 660.15 630.95 663.8 630.95
L 713.95 630.95
Q 717.55 630.95 720.1 628.4 722.65 625.95 722.65 622.35
L 722.65 563.3
Q 722.65 559.75 725.2 557.15 727.7 554.6 731.25 554.6
L 769.05 554.6
Q 772.6 554.6 775.15 557.15 777.65 559.7 777.65 563.3
L 777.65 622.35
Q 777.65 625.95 780.2 628.4 782.75 630.95 786.35 630.95
L 836.55 630.95
Q 840.15 630.95 842.6 628.4 845.15 625.95 845.15 622.35
L 845.15 438.8
M 937.4 431.95
Q 916.55 439.5 901.65 453.2 886.5 467.2 877.95 486.7 869.3 506.5 869.3 530.8 869.3 548.2 873.75 563.25 875.5 569.55 877.95 575.35 881.05 582.55 884.5 588 891.5 600.05 901.65 609.65 916.65 623.85 937.4 631.6 958.1 639.4 982.25 639.4 1006.35 639.4 1027 631.6 1047.7 623.9 1062.9 609.65 1078.2 595.35 1086.8 575.35 1095.35 555.25 1095.35 530.8 1095.35 506.4 1086.8 486.7 1078.25 467.2 1062.9 453.2 1047.75 439.5 1027 431.95 1006.35 424.5 982.25 424.5 958.1 424.5 937.4 431.95
M 942 530.8
Q 942 521.2 945.05 512.85 947.95 505 952.9 499.65
L 953.35 499.1
Q 958.55 493.6 966.1 490.3 973.5 487.2 982.25 487.2 990.9 487.2 998.15 490.3 1005.55 493.5 1010.95 499.1 1016.45 504.75 1019.4 512.85 1022.45 521.2 1022.45 530.8 1022.45 540.7 1019.4 549.25 1016.45 557.45 1010.95 563.55 1006 569.1 999.3 572.35
L 998.15 572.9
Q 990.85 576.2 982.25 576.2 973.55 576.2 966.1 572.9 958.6 569.55 953.35 563.55 948.05 557.5 945.05 549.25 942 540.7 942 530.8
M 1460.25 477.65
L 1460.25 438.8
Q 1460.25 435.25 1457.7 432.7 1455.15 430.15 1451.55 430.15
L 1330.7 430.15
Q 1327.15 430.15 1324.6 432.7 1322.05 435.25 1322.05 438.8
L 1322.05 622.35
Q 1322.05 625.9 1324.6 628.4 1327.15 630.95 1330.7 630.95
L 1456.4 630.95
Q 1460 630.95 1462.5 628.4 1465 625.95 1465 622.35
L 1465 583.45
Q 1465 579.85 1462.5 577.3 1459.95 574.75 1456.4 574.75
L 1394.25 574.75
Q 1390.7 574.75 1388.15 572.25 1385.65 569.75 1385.65 566.15
L 1385.65 564.75
Q 1385.65 561.15 1388.15 558.6 1390.7 556.05 1394.25 556.05
L 1447.05 556.05
Q 1450.65 556.05 1453.15 553.55 1455.65 551.05 1455.65 547.45
L 1455.65 512.3
Q 1455.65 508.65 1453.15 506.1 1450.6 503.6 1447.05 503.6
L 1394.25 503.6
Q 1390.55 503.6 1388.15 501.05 1385.65 498.65 1385.65 494.95 1385.65 491.4 1388.15 488.85 1390.7 486.35 1394.25 486.35
L 1451.55 486.35
Q 1455.15 486.35 1457.7 483.8 1460.25 481.25 1460.25 477.65 Z"/>
</g>

<g id="Symbol_1_117_Layer0_0_FILL">
<path fill="#203931" stroke="none" d="
M 673.8 293
Q 661.3 293 650.5 296.9 639.7 300.85 631.95 307.95 624.05 315.2 619.65 325.35 615.15 335.6 615.15 348.25 615.15 360.85 619.65 371.35 624.05 381.85 631.95 389.2 639.85 396.65 650.5 400.65 661.4 404.7 673.8 404.7 686.25 404.7 697.15 400.65 707.8 396.65 715.75 389.2 723.75 381.95 728.15 371.35 732.65 360.85 732.65 348.25 732.65 335.6 728.15 325.35 723.75 315.1 715.75 307.95 708 300.9 697.15 296.9 686.4 293 673.8 293
M 688.7 331.8
Q 691.7 334.9 693.15 338.95 694.75 343.4 694.75 348.25 694.75 353.25 693.15 357.8 691.7 361.95 688.7 365.25 685.9 368.4 682.1 370.15 678.35 371.85 673.8 371.85 669.35 371.85 665.45 370.15 661.6 368.4 658.8 365.25 655.95 362 654.5 357.8 652.9 353.55 652.9 348.25 652.9 343.1 654.5 338.95 655.95 334.85 658.8 331.8 661.7 328.8 665.45 327.2 669.45 325.55 673.8 325.55 678.2 325.55 682.1 327.2 685.9 328.8 688.7 331.8
M 782.45 296.85
Q 781.05 296.05 779.5 296.05
L 753.45 296.05
Q 751 296.05 749.3 297.8 747.6 299.45 747.6 301.9
L 747.6 395.8
Q 747.6 398.25 749.3 399.9 751 401.65 753.45 401.65
L 775.2 401.65
Q 777.75 401.65 779.5 399.85 781.2 398.05 781.05 395.55
L 779.75 351.2 780.4 351.2 807.9 398.75
Q 809.65 401.65 813.05 401.65
L 840 401.65
Q 842.45 401.65 844.15 399.9 845.9 398.25 845.9 395.8
L 845.9 301.9
Q 845.9 299.45 844.15 297.8 842.45 296.05 840 296.05
L 818.25 296.05
Q 815.8 296.05 814 297.85 812.25 299.65 812.3 302.15
L 813.7 349.6 813.05 349.6 784.65 299
Q 783.9 297.65 782.45 296.85 Z"/>
</g>

<g id="Mask_3_MASK_0_FILL">
<path fill="#FFFFFF" stroke="none" d="
M 1584.4 826.2
L 1584.4 718.2 564.15 718.2 564.15 826.2 1584.4 826.2 Z"/>
</g>

<g id="Symbol_3_0_Layer0_0_FILL">
<path fill="#F06847" stroke="none" d="
M 231.5 439.95
Q 228.2 437.65 224.05 436.65 219.85 435.6 215.55 435.6
L 201.9 435.6
Q 201.45 435.6 201.15 435.95 200.85 436.25 200.85 436.7
L 200.85 475.2
Q 200.85 475.65 201.15 475.95 201.45 476.25 201.9 476.25
L 216 476.25
Q 220.1 476.25 224.25 475.1 228.4 473.85 231.6 471.4 234.9 468.9 236.8 465.05 238.8 461.05 238.8 455.85 238.8 450.15 236.75 446.2 234.8 442.35 231.5 439.95
M 210.4 445.1
Q 210.4 444.65 210.75 444.35 211.05 444 211.5 444
L 215.3 444
Q 217.8 444 220.2 444.6 222.5 445.1 224.45 446.5 226.35 447.85 227.45 450.1 228.55 452.35 228.55 455.85 228.55 459.3 227.45 461.5 226.35 463.75 224.45 465.2 222.55 466.55 220.15 467.15 217.75 467.75 215.05 467.75
L 211.5 467.75
Q 211.05 467.75 210.75 467.45 210.4 467.15 210.4 466.7
L 210.4 445.1 Z"/>
</g>

<g id="Symbol_3_0_Layer0_1_FILL">
<path fill="#F06847" stroke="none" d="
M 256.85 436.7
Q 256.85 436.25 256.55 435.95 256.25 435.6 255.75 435.6
L 248.1 435.6
Q 247.65 435.6 247.35 435.95 247 436.25 247 436.7
L 247 475.2
Q 247 475.65 247.35 475.95 247.65 476.25 248.1 476.25
L 255.75 476.25
Q 256.85 476.25 256.85 475.2
L 256.85 436.7 Z"/>
</g>

<g id="Symbol_3_0_Layer0_2_FILL">
<path fill="#F06847" stroke="none" d="
M 287.45 443.2
Q 290.5 443.2 292.8 444.25 294.6 445.1 295.8 446.2 296.15 446.5 296.6 446.45 297.1 446.45 297.4 446.1
L 302.05 440.75
Q 302.35 440.4 302.3 439.95 302.3 439.45 301.95 439.2 299.45 437.15 296.05 436 292.05 434.55 287.1 434.55 282.55 434.55 278.45 436 274.55 437.45 271.45 440.3 268.5 443.05 266.75 447.05 265.05 451.15 265.05 455.9 265.05 460.55 266.75 464.65 268.4 468.5 271.35 471.4 274.35 474.2 278.4 475.75 282.45 477.3 287.4 477.3 292 477.3 296.1 476.3 299.55 475.5 302.45 474.1 303.1 473.8 303.1 473.1
L 303.1 453.35
Q 303.1 452.9 302.8 452.6 302.45 452.25 302 452.25
L 287.4 452.25
Q 286.95 452.25 286.65 452.6 286.3 452.9 286.3 453.35
L 286.3 459.1
Q 286.3 459.55 286.65 459.9 286.95 460.2 287.4 460.2
L 292.95 460.2
Q 293.4 460.2 293.75 460.55 294.05 460.85 294.05 461.3
L 294.05 466.85
Q 294.05 467.65 293.35 467.9
L 291.2 468.45
Q 289.45 468.7 287.9 468.7 285.05 468.7 282.6 467.75 280.2 466.75 278.7 465.1 277.15 463.4 276.3 461.05 275.5 458.55 275.5 455.9 275.5 453.15 276.4 450.8 277.3 448.5 278.9 446.8 280.5 445.15 282.7 444.15 284.8 443.2 287.45 443.2 Z"/>
</g>

<g id="Symbol_3_0_Layer0_3_FILL">
<path fill="#F06847" stroke="none" d="
M 322.7 436.7
Q 322.7 436.25 322.4 435.95 322.05 435.6 321.6 435.6
L 313.95 435.6
Q 313.45 435.6 313.15 435.95 312.85 436.25 312.85 436.7
L 312.85 475.15
Q 312.85 475.6 313.15 475.95 313.45 476.25 313.95 476.25
L 321.6 476.25
Q 322.05 476.25 322.4 475.95 322.7 475.6 322.7 475.15
L 322.7 436.7 Z"/>
</g>

<g id="Symbol_3_0_Layer0_4_FILL">
<path fill="#F06847" stroke="none" d="
M 340.1 444.35
Q 340.4 444.65 340.4 445.1
L 340.4 475.15
Q 340.4 475.6 340.75 475.95 341.05 476.25 341.5 476.25
L 349.1 476.25
Q 349.55 476.25 349.9 475.95 350.2 475.6 350.2 475.15
L 350.2 445.1
Q 350.2 444.65 350.55 444.35 350.85 444 351.3 444
L 360.6 444
Q 361.05 444 361.4 443.7 361.7 443.35 361.7 442.9
L 361.7 436.7
Q 361.7 436.25 361.4 435.95 361.05 435.6 360.6 435.6
L 330 435.6
Q 329.55 435.6 329.25 435.95 328.9 436.25 328.9 436.7
L 328.9 442.9
Q 328.9 443.35 329.25 443.7 329.55 444 330 444
L 339.3 444
Q 339.75 444 340.1 444.35 Z"/>
</g>

<g id="Symbol_3_0_Layer0_5_FILL">
<path fill="#F06847" stroke="none" d="
M 386.3 436.3
Q 386.05 435.6 385.3 435.6
L 377.25 435.6
Q 376.55 435.6 376.2 436.3
L 360.1 474.75
Q 359.85 475.3 360.2 475.75 360.5 476.25 361.1 476.25
L 369.35 476.25
Q 370.15 476.25 370.4 475.55
L 372.85 469
Q 373.1 468.3 373.85 468.3
L 388.1 468.3
Q 388.85 468.3 389.1 469
L 391.7 475.55
Q 392 476.25 392.75 476.25
L 401.25 476.25
Q 401.85 476.25 402.15 475.75 402.5 475.3 402.25 474.75
L 386.3 436.3
M 385.6 458.95
Q 385.8 459.5 385.5 459.95 385.15 460.4 384.6 460.4
L 377.5 460.4
Q 376.95 460.4 376.6 459.95 376.25 459.5 376.45 458.95
L 380.05 449.3
Q 380.3 448.55 381.1 448.55 381.85 448.6 382.1 449.3
L 385.6 458.95 Z"/>
</g>

<g id="Symbol_3_0_Layer0_6_FILL">
<path fill="#F06847" stroke="none" d="
M 417.9 436.7
Q 417.9 436.25 417.6 435.95 417.25 435.6 416.8 435.6
L 409.1 435.6
Q 408.65 435.6 408.35 435.95 408 436.25 408 436.7
L 408 475.15
Q 408 475.6 408.35 475.95 408.65 476.25 409.1 476.25
L 432.5 476.25
Q 432.95 476.25 433.3 475.95 433.6 475.6 433.6 475.15
L 433.6 468.8
Q 433.6 468.35 433.3 468.05 432.95 467.7 432.5 467.7
L 419 467.7
Q 418.55 467.7 418.25 467.4 417.9 467.05 417.9 466.6
L 417.9 436.7 Z"/>
</g>

<g id="Symbol_4_0_Layer0_0_FILL">
<path fill="#F06847" stroke="none" d="
M 490.85 475.55
Q 491.1 476.25 491.85 476.25
L 500.35 476.25
Q 500.95 476.25 501.3 475.75 501.65 475.3 501.4 474.75
L 485.4 436.3
Q 485.15 435.6 484.4 435.6
L 476.35 435.6
Q 475.65 435.6 475.3 436.3
L 459.2 474.75
Q 458.95 475.3 459.3 475.75 459.6 476.25 460.2 476.25
L 468.45 476.25
Q 469.25 476.25 469.5 475.55
L 471.95 469
Q 472.2 468.3 472.95 468.3
L 487.2 468.3
Q 487.95 468.3 488.2 469
L 490.85 475.55
M 479.15 449.3
Q 479.4 448.55 480.2 448.55 480.95 448.6 481.2 449.3
L 484.7 458.95
Q 484.9 459.5 484.6 459.95 484.25 460.4 483.7 460.4
L 476.6 460.4
Q 476.05 460.4 475.7 459.95 475.35 459.5 475.55 458.95
L 479.15 449.3 Z"/>
</g>

<g id="Symbol_4_0_Layer0_1_FILL">
<path fill="#F06847" stroke="none" d="
M 529.4 445.3
L 534.05 440.4
Q 534.4 440.05 534.35 439.6 534.35 439.1 533.95 438.8 531.5 436.9 528.55 435.85 525 434.6 521.5 434.6 518.75 434.6 515.85 435.3 513.1 436.05 510.8 437.55 508.6 439.1 507.15 441.55 505.8 443.95 505.8 447.35 505.8 450.15 506.7 452 507.65 454.05 509.05 455.3 510.35 456.55 512.35 457.5 514.15 458.3 516.2 459
L 519.75 460.15
Q 521.25 460.7 522.4 461.35 523.45 462.05 524.05 462.85 524.6 463.55 524.6 464.8 524.6 466.05 524.15 466.85 523.65 467.75 522.95 468.25 522.05 468.75 521.1 468.95 520.3 469.2 519 469.2 516.5 469.2 514.15 467.95 512.3 467.05 511 465.75 510.65 465.4 510.2 465.4 509.7 465.4 509.4 465.75
L 504.55 470.65
Q 504.2 471 504.25 471.45 504.25 471.9 504.6 472.25 506.95 474.4 510.55 475.8 514.7 477.3 519 477.3 522.05 477.3 524.8 476.5 527.7 475.65 529.8 474.05 532 472.3 533.25 469.8 534.55 467.2 534.55 463.75 534.55 460.75 533.35 458.65 532.1 456.55 530.3 455.25 528.5 453.9 526.25 453.05
L 519.35 450.65
Q 518 450.1 517.35 449.7 516.55 449.2 516.1 448.5 515.65 447.75 515.65 446.75 515.65 445.6 516.2 444.8 516.75 444.1 517.55 443.5 518.5 443 519.35 442.85
L 521.35 442.7
Q 523.35 442.7 525.3 443.65 526.8 444.35 527.8 445.35 528.15 445.65 528.6 445.65 529.05 445.65 529.4 445.3 Z"/>
</g>

<g id="Symbol_4_0_Layer0_2_FILL">
<path fill="#F06847" stroke="none" d="
M 569.7 440.4
Q 570.05 440.05 570 439.6 570 439.1 569.6 438.8 567.15 436.9 564.2 435.85 560.65 434.6 557.15 434.6 554.4 434.6 551.5 435.3 548.75 436.05 546.45 437.55 544.25 439.1 542.8 441.55 541.45 443.95 541.45 447.35 541.45 450.15 542.35 452 543.3 454.05 544.7 455.3 546 456.55 548 457.5 549.8 458.3 551.85 459
L 555.4 460.15
Q 557.05 460.8 558.05 461.35 559.1 462.05 559.7 462.85 560.25 463.55 560.25 464.8 560.25 466.05 559.8 466.85 559.3 467.75 558.6 468.25 557.7 468.75 556.75 468.95 555.95 469.2 554.65 469.2 552.15 469.2 549.8 467.95 547.95 467.05 546.65 465.75 546.3 465.4 545.85 465.4 545.35 465.4 545.05 465.75
L 540.2 470.65
Q 539.85 471 539.9 471.45 539.9 471.9 540.25 472.25 542.6 474.4 546.2 475.8 550.35 477.3 554.65 477.3 557.7 477.3 560.45 476.5 563.35 475.65 565.45 474.05 567.65 472.3 568.9 469.8 570.2 467.2 570.2 463.75 570.2 460.75 569 458.65 567.75 456.55 565.95 455.25 564.15 453.9 561.9 453.05
L 555 450.65
Q 553.65 450.1 553 449.7 552.2 449.2 551.75 448.5 551.3 447.75 551.3 446.75 551.3 445.6 551.85 444.8 552.4 444.1 553.2 443.5 554.15 443 555 442.85
L 557 442.7
Q 558.9 442.7 560.95 443.65 562.45 444.35 563.45 445.35 563.8 445.65 564.25 445.65 564.7 445.65 565.05 445.3
L 569.7 440.4 Z"/>
</g>

<g id="Symbol_4_0_Layer0_3_FILL">
<path fill="#F06847" stroke="none" d="
M 578.75 435.95
Q 578.4 436.25 578.4 436.7
L 578.4 475.15
Q 578.4 475.6 578.75 475.95 579.05 476.25 579.5 476.25
L 605.65 476.25
Q 606.15 476.25 606.45 475.95 606.75 475.6 606.75 475.15
L 606.75 469
Q 606.75 467.9 605.65 467.9
L 589 467.9
Q 588.5 467.9 588.2 467.6 587.9 467.25 587.9 466.8
L 587.9 460.55
Q 587.9 460.1 588.2 459.8 588.5 459.45 589 459.45
L 603.65 459.45
Q 604.1 459.45 604.45 459.15 604.75 458.8 604.75 458.35
L 604.75 452.7
Q 604.75 452.2 604.45 451.9 604.1 451.6 603.65 451.6
L 589 451.6
Q 588.5 451.6 588.2 451.3 587.9 450.95 587.9 450.5
L 587.9 445
Q 587.9 444.55 588.2 444.25 588.5 443.9 589 443.9
L 604.65 443.9
Q 605.1 443.9 605.45 443.6 605.75 443.25 605.75 442.8
L 605.75 436.7
Q 605.75 436.25 605.45 435.95 605.1 435.6 604.65 435.6
L 579.5 435.6
Q 579.05 435.6 578.75 435.95 Z"/>
</g>

<g id="Symbol_4_0_Layer0_4_FILL">
<path fill="#F06847" stroke="none" d="
M 622.25 444.35
Q 622.55 444.65 622.55 445.1
L 622.55 475.15
Q 622.55 475.6 622.9 475.95 623.2 476.25 623.65 476.25
L 631.3 476.25
Q 631.75 476.25 632.05 475.95 632.35 475.6 632.35 475.15
L 632.35 445.1
Q 632.35 444.65 632.7 444.35 633 444 633.45 444
L 642.75 444
Q 643.2 444 643.55 443.7 643.85 443.35 643.85 442.9
L 643.85 436.7
Q 643.85 436.25 643.55 435.95 643.2 435.6 642.75 435.6
L 612.15 435.6
Q 611.7 435.6 611.4 435.95 611.1 436.25 611.1 436.7
L 611.1 442.9
Q 611.1 443.35 611.4 443.7 611.7 444 612.15 444
L 621.45 444
Q 621.9 444 622.25 444.35 Z"/>
</g>

<g id="Symbol_5_0_Layer0_0_FILL">
<path fill="#F06847" stroke="none" d="
M 704.3 442.25
Q 703.05 439.9 700.9 438.4 698.55 436.85 695.85 436.3 692.8 435.6 689.65 435.6
L 675.8 435.6
Q 675.35 435.6 675.05 435.95 674.7 436.25 674.7 436.7
L 674.7 475.15
Q 674.7 475.6 675.05 475.95 675.35 476.25 675.8 476.25
L 683.4 476.25
Q 683.9 476.25 684.2 475.95 684.5 475.6 684.5 475.15
L 684.5 462.05
Q 684.5 461.6 684.85 461.3 685.15 460.95 685.6 460.95
L 689.4 460.95
Q 692.45 460.95 695.5 460.25 698.35 459.6 700.65 458.05 702.95 456.55 704.2 454.15 705.55 451.7 705.55 448.15 705.55 444.75 704.3 442.25
M 688.8 443.55
Q 690.15 443.55 691.4 443.7 692.8 443.95 693.6 444.4 694.5 444.9 695.15 445.85 695.7 446.8 695.7 448.2 695.7 449.6 695.15 450.6 694.5 451.55 693.55 452.1 692.65 452.65 691.3 452.9 689.9 453.15 688.65 453.15
L 685.6 453.15
Q 685.15 453.15 684.85 452.85 684.5 452.5 684.5 452.05
L 684.5 444.65
Q 684.5 444.2 684.85 443.9 685.15 443.55 685.6 443.55
L 688.8 443.55 Z"/>
</g>

<g id="Symbol_5_0_Layer0_1_FILL">
<path fill="#F06847" stroke="none" d="
M 742.9 442.05
Q 741.5 439.6 739.35 438.25 737.3 436.9 734.4 436.2 731.55 435.6 728.65 435.6
L 714.25 435.6
Q 713.8 435.6 713.5 435.95 713.15 436.25 713.15 436.7
L 713.15 475.15
Q 713.15 475.6 713.5 475.95 713.8 476.25 714.25 476.25
L 721.65 476.25
Q 722.1 476.25 722.45 475.95 722.75 475.6 722.75 475.15
L 722.75 461.25
Q 722.75 460.75 723.1 460.45 723.4 460.15 723.85 460.15
L 725.45 460.15
Q 726.1 460.15 726.4 460.7
L 734.6 475.7
Q 734.9 476.25 735.55 476.25
L 744.45 476.25
Q 745.1 476.25 745.4 475.7 745.75 475.15 745.4 474.6
L 735.8 458.85
Q 739.8 457.6 742 454.85 744.2 452.15 744.2 447.9 744.2 444.3 742.9 442.05
M 730.2 443.7
Q 731.5 443.95 732.35 444.4 733.3 444.85 733.9 445.75 734.5 446.65 734.5 448.1 734.5 449.65 733.85 450.6 733.15 451.6 732.15 452.1 731.05 452.65 729.85 452.8 728.7 453 727.35 453
L 723.8 453
Q 723.35 453 723.05 452.7 722.7 452.35 722.7 451.9
L 722.7 444.65
Q 722.7 444.2 723.05 443.9 723.35 443.55 723.8 443.55
L 730.2 443.7 Z"/>
</g>

<g id="Symbol_5_0_Layer0_2_FILL">
<path fill="#F06847" stroke="none" d="
M 789.05 440.25
Q 785.95 437.45 782 436 777.9 434.55 773.15 434.55 768.45 434.55 764.35 436 760.35 437.5 757.35 440.25 754.5 442.9 752.7 446.95 751.05 450.95 751.05 455.75 751.05 460.55 752.7 464.6 754.45 468.65 757.35 471.4 760.2 474.2 764.35 475.8 768.35 477.35 773.15 477.35 778 477.35 782 475.8 786.1 474.2 789.05 471.4 792.05 468.5 793.65 464.6 795.3 460.55 795.3 455.75 795.3 450.95 793.65 446.95 792 443.05 789.05 440.25
M 773.15 443.35
Q 775.6 443.35 777.9 444.3 780.05 445.25 781.55 446.9 783 448.45 783.95 450.85 784.8 453.15 784.8 455.75 784.8 458.45 783.95 460.85 783.05 463.2 781.55 464.85 780 466.5 777.85 467.45 775.8 468.4 773.15 468.4 770.5 468.4 768.45 467.45 766.25 466.4 764.8 464.85 763.3 463.2 762.4 460.85 761.55 458.45 761.55 455.75 761.55 453.15 762.4 450.85 763.2 448.6 764.75 446.9 766.25 445.3 768.45 444.3 770.65 443.35 773.15 443.35 Z"/>
</g>

<g id="Symbol_5_0_Layer0_3_FILL">
<path fill="#F06847" stroke="none" d="
M 834.2 439.95
Q 830.9 437.65 826.7 436.65 822.5 435.6 818.2 435.6
L 804.6 435.6
Q 804.15 435.6 803.85 435.95 803.5 436.25 803.5 436.7
L 803.5 475.15
Q 803.5 475.6 803.85 475.95 804.15 476.25 804.6 476.25
L 818.7 476.25
Q 822.8 476.25 826.95 475.1 831.15 473.85 834.25 471.4 837.5 468.9 839.5 465.05 841.45 461.15 841.45 455.85 841.45 450.05 839.45 446.2 837.4 442.25 834.2 439.95
M 813.1 445.1
Q 813.1 444.65 813.45 444.35 813.75 444 814.2 444
L 818 444
Q 820.5 444 822.9 444.6 825.2 445.1 827.15 446.5 829.05 447.85 830.15 450.1 831.25 452.35 831.25 455.85 831.25 459.3 830.15 461.5 829.05 463.75 827.15 465.2 825.3 466.55 822.85 467.15 820.4 467.75 817.75 467.75
L 814.2 467.75
Q 813.75 467.75 813.45 467.45 813.1 467.15 813.1 466.65
L 813.1 445.1 Z"/>
</g>

<g id="Symbol_5_0_Layer0_4_FILL">
<path fill="#F06847" stroke="none" d="
M 884.1 436.7
Q 884.1 436.25 883.8 435.95 883.5 435.6 883 435.6
L 875.4 435.6
Q 874.95 435.6 874.65 435.95 874.3 436.25 874.3 436.7
L 874.3 460.15
Q 874.3 461.7 873.9 463.3 873.55 464.8 872.6 465.95 871.7 467.05 870.2 467.85 868.75 468.5 866.65 468.5 864.5 468.5 863.15 467.85 861.65 467.1 860.8 465.95 859.9 464.85 859.45 463.3 859.05 461.7 859.05 460.15
L 859.05 436.7
Q 859.05 436.25 858.75 435.95 858.4 435.6 857.95 435.6
L 850.35 435.6
Q 849.9 435.6 849.6 435.95 849.25 436.25 849.25 436.7
L 849.25 460.95
Q 849.25 464.45 850.5 467.65 851.65 470.55 853.9 472.8 856.1 474.9 859.4 476.15 862.55 477.35 866.6 477.35 870.6 477.35 873.8 476.15 877 475 879.35 472.8 881.6 470.7 882.9 467.65 884.1 464.6 884.1 460.95
L 884.1 436.7 Z"/>
</g>

<g id="Symbol_5_0_Layer0_5_FILL">
<path fill="#F06847" stroke="none" d="
M 909.5 444.4
Q 911.6 443.45 914.25 443.45 916.6 443.45 918.85 444.35 920.6 445.05 921.7 446.3 922.05 446.65 922.5 446.65 922.95 446.65 923.3 446.3
L 928.35 441.25
Q 928.7 440.95 928.7 440.5 928.7 440 928.35 439.7 925.9 437.3 922.4 436.05 918.2 434.55 913.9 434.55 909.3 434.55 905.25 436 901.35 437.45 898.25 440.3 895.3 443.05 893.55 447.05 891.85 451.15 891.85 455.9 891.85 460.7 893.55 464.6 895.2 468.6 898.15 471.4 901.05 474.2 905.05 475.8 908.95 477.35 913.75 477.35 918.95 477.35 922.85 475.55 926.3 474 928.75 471.45 929.1 471.1 929.1 470.65 929.1 470.2 928.75 469.9
L 923.55 465
Q 923.2 464.7 922.75 464.75 922.3 464.75 922 465.1 920.75 466.35 919.2 467.2 917 468.35 914.1 468.35 911.5 468.35 909.45 467.4 907.3 466.5 905.8 464.85 904.4 463.45 903.4 460.95 902.55 458.55 902.55 455.9 902.55 453.3 903.4 450.9 904.3 448.65 905.8 447 907.45 445.3 909.5 444.4 Z"/>
</g>

<g id="Symbol_5_0_Layer0_6_FILL">
<path fill="#F06847" stroke="none" d="
M 942.35 444.35
Q 942.65 444.65 942.65 445.1
L 942.65 475.15
Q 942.65 475.65 943 475.95 943.3 476.25 943.75 476.25
L 951.4 476.25
Q 951.85 476.25 952.2 475.95 952.5 475.65 952.5 475.15
L 952.5 445.1
Q 952.5 444.65 952.85 444.35 953.15 444 953.6 444
L 962.9 444
Q 963.35 444 963.65 443.7 963.95 443.35 963.95 442.9
L 963.95 436.7
Q 963.95 436.25 963.65 435.95 963.35 435.6 962.9 435.6
L 932.3 435.6
Q 931.85 435.6 931.55 435.95 931.2 436.25 931.2 436.7
L 931.2 442.9
Q 931.2 443.35 931.55 443.7 931.85 444 932.3 444
L 941.6 444
Q 942.05 444 942.35 444.35 Z"/>
</g>

<g id="Symbol_5_0_Layer0_7_FILL">
<path fill="#F06847" stroke="none" d="
M 971.25 435.6
Q 970.8 435.6 970.5 435.95 970.15 436.25 970.15 436.7
L 970.15 475.15
Q 970.15 475.65 970.5 475.95 970.8 476.25 971.25 476.25
L 978.95 476.25
Q 979.4 476.25 979.75 475.95 980.05 475.65 980.05 475.15
L 980.05 436.7
Q 980.05 436.25 979.75 435.95 979.4 435.6 978.95 435.6
L 971.25 435.6 Z"/>
</g>

<g id="Symbol_5_0_Layer0_8_FILL">
<path fill="#F06847" stroke="none" d="
M 1026.25 440.25
Q 1023.15 437.45 1019.2 436 1015.1 434.55 1010.35 434.55 1005.65 434.55 1001.55 436 997.55 437.5 994.55 440.25 991.7 442.9 989.9 446.95 988.25 450.95 988.25 455.75 988.25 460.55 989.9 464.6 991.65 468.65 994.55 471.4 997.4 474.2 1001.55 475.8 1005.55 477.35 1010.35 477.35 1015.2 477.35 1019.2 475.8 1023.3 474.2 1026.25 471.4 1029.25 468.5 1030.85 464.6 1032.5 460.55 1032.5 455.75 1032.5 450.95 1030.85 446.95 1029.2 443.05 1026.25 440.25
M 1005.65 444.3
Q 1007.85 443.35 1010.35 443.35 1012.8 443.35 1015.1 444.3 1017.25 445.25 1018.75 446.9 1020.2 448.45 1021.15 450.85 1022 453.15 1022 455.75 1022 458.45 1021.15 460.85 1020.25 463.2 1018.75 464.85 1017.2 466.5 1015.05 467.45 1013 468.4 1010.35 468.4 1007.7 468.4 1005.65 467.45 1003.45 466.4 1002 464.85 1000.5 463.2 999.6 460.85 998.75 458.45 998.75 455.75 998.75 453.15 999.6 450.85 1000.4 448.6 1001.95 446.9 1003.45 445.3 1005.65 444.3 Z"/>
</g>

<g id="Symbol_5_0_Layer0_9_FILL">
<path fill="#F06847" stroke="none" d="
M 1077.7 436.7
Q 1077.7 436.25 1077.4 435.95 1077.05 435.6 1076.6 435.6
L 1069.25 435.6
Q 1068.8 435.6 1068.5 435.95 1068.15 436.25 1068.15 436.7
L 1068.4 462.15 1068.2 462.15 1052.25 436.15
Q 1051.95 435.6 1051.3 435.6
L 1041.8 435.6
Q 1041.35 435.6 1041.05 435.95 1040.7 436.25 1040.7 436.7
L 1040.7 475.15
Q 1040.7 475.65 1041.05 475.95 1041.35 476.25 1041.8 476.25
L 1049.15 476.25
Q 1049.6 476.25 1049.95 475.95 1050.25 475.6 1050.25 475.15
L 1050 449.7 1050.2 449.7 1066.25 475.75
Q 1066.6 476.25 1067.15 476.25
L 1076.6 476.25
Q 1077.05 476.25 1077.4 475.95 1077.7 475.65 1077.7 475.15
L 1077.7 436.7 Z"/>
</g>
</defs>

<g transform="matrix( 1.183380126953125, 0, 0, 1.183380126953125, -179.95,171.5) ">
<g transform="matrix( 1, 0, 0, 1, 0,0) ">
<use xlink:href="#Symbol_1_117_Layer6_0_FILL"/>
</g>

<mask id="Mask_Mask_1">
<g transform="matrix( 1, 0, 0, 1, 0,0) ">
<use xlink:href="#Mask_Symbol_1_117_5_MASK_0_FILL"/>
</g>
</mask>

<g mask="url(#Mask_Mask_1)"/>

<g transform="matrix( 1, 0, 0, 1, 1482.3,588.6) "/>

<g transform="matrix( -0.3795166015625, -0.9251708984375, 0.9251708984375, -0.3795166015625, 420.15,635.7) "/>

<g transform="matrix( 1, 0, 0, 1, 0,0) ">
<use xlink:href="#Symbol_1_117_Layer0_0_FILL"/>
</g>
</g>

<mask id="Mask_Mask_2">
<g transform="matrix( 1, 0, 0, 1, 0,200) ">
<use xlink:href="#Mask_3_MASK_0_FILL"/>
</g>
</mask>

<g mask="url(#Mask_Mask_2)">
<g transform="matrix( 1, 0, 0, 1, 593.25,968.1) ">
<g transform="matrix( 1.0946044921875, 0, 0, 1.0946044921875, -219.85,-475.65) ">
<use xlink:href="#Symbol_3_0_Layer0_0_FILL"/>
</g>

<g transform="matrix( 1.0946044921875, 0, 0, 1.0946044921875, -219.85,-475.65) ">
<use xlink:href="#Symbol_3_0_Layer0_1_FILL"/>
</g>

<g transform="matrix( 1.0946044921875, 0, 0, 1.0946044921875, -219.85,-475.65) ">
<use xlink:href="#Symbol_3_0_Layer0_2_FILL"/>
</g>

<g transform="matrix( 1.0946044921875, 0, 0, 1.0946044921875, -219.85,-475.65) ">
<use xlink:href="#Symbol_3_0_Layer0_3_FILL"/>
</g>

<g transform="matrix( 1.0946044921875, 0, 0, 1.0946044921875, -219.85,-475.65) ">
<use xlink:href="#Symbol_3_0_Layer0_4_FILL"/>
</g>

<g transform="matrix( 1.0946044921875, 0, 0, 1.0946044921875, -219.85,-475.65) ">
<use xlink:href="#Symbol_3_0_Layer0_5_FILL"/>
</g>

<g transform="matrix( 1.0946044921875, 0, 0, 1.0946044921875, -219.85,-475.65) ">
<use xlink:href="#Symbol_3_0_Layer0_6_FILL"/>
</g>
</g>
</g>

<g mask="url(#Mask_Mask_2)">
<g transform="matrix( 1, 0, 0, 1, 875.9,968.15) ">
<g transform="matrix( 1.0946044921875, 0, 0, 1.0946044921875, -502.5,-475.7) ">
<use xlink:href="#Symbol_4_0_Layer0_0_FILL"/>
</g>

<g transform="matrix( 1.0946044921875, 0, 0, 1.0946044921875, -502.5,-475.7) ">
<use xlink:href="#Symbol_4_0_Layer0_1_FILL"/>
</g>

<g transform="matrix( 1.0946044921875, 0, 0, 1.0946044921875, -502.5,-475.7) ">
<use xlink:href="#Symbol_4_0_Layer0_2_FILL"/>
</g>

<g transform="matrix( 1.0946044921875, 0, 0, 1.0946044921875, -502.5,-475.7) ">
<use xlink:href="#Symbol_4_0_Layer0_3_FILL"/>
</g>

<g transform="matrix( 1.0946044921875, 0, 0, 1.0946044921875, -502.5,-475.7) ">
<use xlink:href="#Symbol_4_0_Layer0_4_FILL"/>
</g>
</g>
</g>

<g mask="url(#Mask_Mask_2)">
<g transform="matrix( 1, 0, 0, 1, 1111.95,968.1) ">
<g transform="matrix( 1.0946044921875, 0, 0, 1.0946044921875, -738.55,-475.65) ">
<use xlink:href="#Symbol_5_0_Layer0_0_FILL"/>
</g>

<g transform="matrix( 1.0946044921875, 0, 0, 1.0946044921875, -738.55,-475.65) ">
<use xlink:href="#Symbol_5_0_Layer0_1_FILL"/>
</g>

<g transform="matrix( 1.0946044921875, 0, 0, 1.0946044921875, -738.55,-475.65) ">
<use xlink:href="#Symbol_5_0_Layer0_2_FILL"/>
</g>

<g transform="matrix( 1.0946044921875, 0, 0, 1.0946044921875, -738.55,-475.65) ">
<use xlink:href="#Symbol_5_0_Layer0_3_FILL"/>
</g>

<g transform="matrix( 1.0946044921875, 0, 0, 1.0946044921875, -738.55,-475.65) ">
<use xlink:href="#Symbol_5_0_Layer0_4_FILL"/>
</g>

<g transform="matrix( 1.0946044921875, 0, 0, 1.0946044921875, -738.55,-475.65) ">
<use xlink:href="#Symbol_5_0_Layer0_5_FILL"/>
</g>

<g transform="matrix( 1.0946044921875, 0, 0, 1.0946044921875, -738.55,-475.65) ">
<use xlink:href="#Symbol_5_0_Layer0_6_FILL"/>
</g>

<g transform="matrix( 1.0946044921875, 0, 0, 1.0946044921875, -738.55,-475.65) ">
<use xlink:href="#Symbol_5_0_Layer0_7_FILL"/>
</g>

<g transform="matrix( 1.0946044921875, 0, 0, 1.0946044921875, -738.55,-475.65) ">
<use xlink:href="#Symbol_5_0_Layer0_8_FILL"/>
</g>

<g transform="matrix( 1.0946044921875, 0, 0, 1.0946044921875, -738.55,-475.65) ">
<use xlink:href="#Symbol_5_0_Layer0_9_FILL"/>
</g>
</g>
</g>
</svg>
