
<svg xmlns="http://www.w3.org/2000/svg" version="1.1" xmlns:xlink="http://www.w3.org/1999/xlink" preserveAspectRatio="none" x="0px" y="0px" width="1920px" height="1600px" viewBox="0 0 1920 1600">
<defs>
<g id="o2_0_Layer0_0_FILL">
<path fill="#F06847" stroke="none" d="
M 184.3 38.1
Q 184.3 29.4 181.2 22.3 178.15 15.25 172.65 10.3 167.3 5.45 159.8 2.7 152.4 0 143.7 0 135.1 0 127.65 2.7 120.2 5.4 114.85 10.3 109.4 15.3 106.35 22.3 103.25 29.4 103.25 38.1 103.25 46.8 106.35 54.05 109.4 61.3 114.85 66.35 120.3 71.5 127.65 74.25 135.15 77.05 143.7 77.05 152.3 77.05 159.8 74.25 167.15 71.5 172.65 66.35 178.15 61.35 181.2 54.05 184.3 46.8 184.3 38.1
M 143.7 22.45
Q 146.75 22.45 149.45 23.6 152.05 24.7 154 26.75 156.05 28.9 157.05 31.7 158.15 34.75 158.15 38.1 158.15 41.55 157.05 44.7 156.05 47.55 154 49.85 152.05 52 149.45 53.2 146.85 54.4 143.7 54.4 140.65 54.4 137.95 53.2 135.3 52 133.35 49.85 131.4 47.6 130.4 44.7 129.3 41.75 129.3 38.1 129.3 34.55 130.4 31.7 131.4 28.85 133.35 26.75 135.35 24.7 137.95 23.6 140.7 22.45 143.7 22.45 Z"/>
</g>

<g id="o_0_Layer0_0_FILL">
<path fill="#FFFBF0" stroke="none" d="
M 404.55 81.1
Q 387.45 74.95 367.5 74.95 347.5 74.95 330.4 81.1 313.15 87.35 300.8 98.7 288.25 110.25 281.2 126.4 274.05 142.8 274.05 162.9 274.05 177.3 277.7 189.75 279.15 194.95 281.2 199.75 283.75 205.7 286.6 210.25 292.4 220.2 300.8 228.15 313.2 239.9 330.4 246.3 347.5 252.75 367.5 252.75 387.45 252.75 404.55 246.3 421.65 239.95 434.25 228.15 446.9 216.3 454 199.75 461.1 183.15 461.1 162.9 461.1 142.7 454 126.4 446.95 110.25 434.25 98.7 421.7 87.35 404.55 81.1
M 391.25 136.65
Q 395.8 141.35 398.25 148.05 400.75 154.95 400.75 162.9 400.75 171.1 398.25 178.15 395.8 184.95 391.25 190 387.15 194.6 381.6 197.3
L 380.65 197.75
Q 374.6 200.45 367.5 200.45 360.3 200.45 354.15 197.75 347.95 194.95 343.6 190 339.2 185 336.7 178.15 334.2 171.1 334.2 162.9 334.2 154.95 336.7 148.05 339.1 141.55 343.2 137.1
L 343.6 136.65
Q 347.9 132.1 354.15 129.4 360.25 126.8 367.5 126.8 374.65 126.8 380.65 129.4 386.8 132.05 391.25 136.65 Z"/>
</g>
</defs>

<g transform="matrix( 1.183380126953125, 0, 0, 1.183380126953125, -179.95,171.5) ">
<g transform="matrix( 3.6198272705078125, 0, 0, 1.06048583984375, 609,471.8) ">
<g transform="matrix( 1.4498138427734375, 0, 0, 1.4498138427734375, -149.7,0) ">
<use xlink:href="#o2_0_Layer0_0_FILL"/>
</g>
</g>

<g transform="matrix( 1, 0, 0, 1, 869.35,424.5) ">
<g transform="matrix( 1.20843505859375, 0, 0, 1.20843505859375, -331.2,-90.55) ">
<use xlink:href="#o_0_Layer0_0_FILL"/>
</g>
</g>
</g>
</svg>
