
<svg xmlns="http://www.w3.org/2000/svg" version="1.1" xmlns:xlink="http://www.w3.org/1999/xlink" preserveAspectRatio="none" x="0px" y="0px" width="1920px" height="1600px" viewBox="0 0 1920 1600">
<defs>
<g id="e_0_Layer0_0_FILL">
<path fill="#FFFBF0" stroke="none" d="
M 706.5 96.35
Q 704.75 94.6 702.25 94.6
L 618.9 94.6
Q 616.45 94.6 614.7 96.35 612.95 98.1 612.95 100.55
L 612.95 227.15
Q 612.95 229.6 614.7 231.35 616.45 233.1 618.9 233.1
L 705.6 233.1
Q 708.1 233.1 709.8 231.35 711.55 229.65 711.55 227.15
L 711.55 200.35
Q 711.55 197.85 709.8 196.1 708.05 194.35 705.6 194.35
L 662.75 194.35
Q 660.3 194.35 658.55 192.6 656.8 190.9 656.8 188.4
L 656.8 187.45
Q 656.8 184.95 658.55 183.2 660.3 181.45 662.75 181.45
L 699.15 181.45
Q 701.65 181.45 703.35 179.7 705.1 178 705.1 175.5
L 705.1 151.25
Q 705.1 148.75 703.35 147 701.6 145.25 699.15 145.25
L 662.75 145.25
Q 660.2 145.25 658.55 143.5 656.8 141.85 656.8 139.3 656.8 136.85 658.55 135.1 660.3 133.35 662.75 133.35
L 702.25 133.35
Q 704.75 133.35 706.5 131.6 708.25 129.85 708.25 127.35
L 708.25 100.55
Q 708.25 98.1 706.5 96.35 Z"/>
</g>

<g id="r_0_Layer0_0_FILL">
<path fill="#FFFBF0" stroke="none" d="
M 553.2 96.65
Q 543.05 94.6 532.95 94.6
L 479.25 94.6
Q 476.75 94.6 475 96.35 473.25 98.1 473.25 100.55
L 473.25 227.15
Q 473.25 229.6 475 231.35 476.75 233.1 479.25 233.1
L 512.5 233.1
Q 515 233.1 516.7 231.35 518.45 229.65 518.45 227.15
L 518.45 183.6 519.8 183.6 544.7 229.95
Q 545.45 231.4 546.9 232.25 548.3 233.1 549.95 233.1
L 589.05 233.1
Q 592.55 233.1 594.3 230.05 596 226.95 594.15 224
L 568.1 182.4
Q 566.8 180.3 567.3 177.9 567.85 175.45 569.95 174.2 577.9 169.4 582.65 162 588.9 152.3 588.9 139.6 588.9 126.55 584 117.75 579.15 109.05 571.2 103.9 563.3 98.7 553.2 96.65
M 543.3 141.55
Q 543.3 145.25 541.65 147.5 539.95 149.8 537.6 151.05 535.1 152.35 532.35 152.7 529.8 153.1 527.2 153.1
L 524.05 153.1
Q 521.55 153.1 519.8 151.35 518.05 149.6 518.05 147.15
L 518.05 136.75
Q 518.05 134.3 519.8 132.55 521.55 130.8 524.05 130.8
L 529.15 130.8
Q 531.25 130.8 533.8 131.1 536.05 131.3 538.45 132.45 540.55 133.45 541.95 135.7 543.3 137.8 543.3 141.55 Z"/>
</g>

<g id="o_0_Layer0_0_FILL">
<path fill="#FFFBF0" stroke="none" d="
M 404.55 81.1
Q 387.45 74.95 367.5 74.95 347.5 74.95 330.4 81.1 313.15 87.35 300.8 98.7 288.25 110.25 281.2 126.4 274.05 142.8 274.05 162.9 274.05 177.3 277.7 189.75 279.15 194.95 281.2 199.75 283.75 205.7 286.6 210.25 292.4 220.2 300.8 228.15 313.2 239.9 330.4 246.3 347.5 252.75 367.5 252.75 387.45 252.75 404.55 246.3 421.65 239.95 434.25 228.15 446.9 216.3 454 199.75 461.1 183.15 461.1 162.9 461.1 142.7 454 126.4 446.95 110.25 434.25 98.7 421.7 87.35 404.55 81.1
M 391.25 136.65
Q 395.8 141.35 398.25 148.05 400.75 154.95 400.75 162.9 400.75 171.1 398.25 178.15 395.8 184.95 391.25 190 387.15 194.6 381.6 197.3
L 380.65 197.75
Q 374.6 200.45 367.5 200.45 360.3 200.45 354.15 197.75 347.95 194.95 343.6 190 339.2 185 336.7 178.15 334.2 171.1 334.2 162.9 334.2 154.95 336.7 148.05 339.1 141.55 343.2 137.1
L 343.6 136.65
Q 347.9 132.1 354.15 129.4 360.25 126.8 367.5 126.8 374.65 126.8 380.65 129.4 386.8 132.05 391.25 136.65 Z"/>
</g>

<g id="h_0_Layer0_0_FILL">
<path fill="#FFFBF0" stroke="none" d="
M 260.15 96.35
Q 258.45 94.6 255.95 94.6
L 221.15 94.6
Q 218.65 94.6 216.9 96.35 215.15 98.1 215.15 100.55
L 215.15 135.6
Q 215.15 138.1 213.4 139.8 211.7 141.55 209.2 141.55
L 183.15 141.55
Q 180.7 141.55 178.95 139.8 177.2 138.05 177.2 135.6
L 177.2 100.55
Q 177.2 98.1 175.45 96.35 173.75 94.6 171.25 94.6
L 136.8 94.6
Q 134.3 94.6 132.55 96.35 130.8 98.1 130.8 100.55
L 130.8 227.15
Q 130.8 229.6 132.55 231.35 134.3 233.1 136.8 233.1
L 171.4 233.1
Q 173.9 233.1 175.65 231.35 177.4 229.65 177.4 227.15
L 177.4 186.45
Q 177.4 184 179.15 182.2 180.9 180.45 183.35 180.45
L 209.4 180.45
Q 211.85 180.45 213.6 182.2 215.35 183.95 215.35 186.45
L 215.35 227.15
Q 215.35 229.65 217.1 231.35 218.85 233.1 221.35 233.1
L 255.95 233.1
Q 258.45 233.1 260.15 231.35 261.9 229.65 261.9 227.15
L 261.9 100.55
Q 261.9 98.1 260.15 96.35 Z"/>
</g>

<g id="Symbol_1_90_Layer6_4_FILL">
<path fill="#F06847" stroke="none" d="
M 63.55 90.7
Q 53.35 90.7 43 93.25 32.6 95.8 24.3 101.55 15.95 107.35 10.7 116.35 5.4 125.4 5.4 138.3 5.4 147.45 8.35 154.1 11.35 160.75 16.3 165.35 21.3 170.1 27.75 173.3 34.2 176.55 41.25 178.85 49.65 181.65 53.25 183 58.25 184.9 60.8 186.25 63.6 187.7 64.6 189.1 65.7 190.5 65.7 192.4 65.7 196.15 62.45 197.5 59.25 198.85 55.3 198.85 46.65 198.85 38.6 194.75 33.35 192.15 29.65 189.15 27.8 187.7 25.45 187.85 23.1 188.05 21.55 189.75
L 1.55 211.5
Q -0.3 213.45 0 216.15 0.25 218.8 2.45 220.4 5.3 222.45 9.15 224.65 15.8 228.45 23.35 231.3 31.1 234.15 38.95 235.55 46.85 237 55.5 237 66.05 237 76.25 234 86.45 230.9 94.55 224.8 102.75 218.6 107.65 209.35 112.65 199.95 112.65 187.5 112.65 176.75 108.15 169.55 103.65 162.3 96.7 157.3 89.55 152.25 81.55 149.15 72.35 145.7 65.9 143.7 58.1 141.1 55.4 139.75 52.15 138.25 52.15 135.1 52.15 131.75 55.3 130.3 58.35 128.85 63.55 128.85 69.05 128.85 75.85 131.85 80.1 133.75 83.45 136.65 85.25 138.25 87.65 138.15 90 138.1 91.7 136.4
L 111.85 115.8
Q 113.75 113.9 113.55 111.2 113.35 108.5 111.15 106.85 102.25 100 91.4 95.95 77.25 90.7 63.55 90.7 Z"/>
</g>

<g id="n_0_Layer0_0_FILL">
<path fill="#F06847" stroke="none" d="
M 262.4 6.15
Q 262.4 4.45 261.2 3.3 260.05 2.1 258.35 2.1
L 243.35 2.1
Q 241.65 2.1 240.4 3.35 239.2 4.6 239.25 6.3
L 240.2 39.05 239.75 39.05 220.15 4.15
Q 219.65 3.2 218.65 2.65 217.7 2.1 216.6 2.1
L 198.65 2.1
Q 196.95 2.1 195.8 3.3 194.6 4.45 194.6 6.15
L 194.6 70.9
Q 194.6 72.6 195.8 73.75 196.95 74.95 198.65 74.95
L 213.65 74.95
Q 215.4 74.95 216.6 73.7 217.8 72.45 217.7 70.75
L 216.8 40.15 217.25 40.15 236.2 72.95
Q 237.4 74.95 239.75 74.95
L 258.35 74.95
Q 260.05 74.95 261.2 73.75 262.4 72.6 262.4 70.9
L 262.4 6.15 Z"/>
</g>

<g id="o2_0_Layer0_0_FILL">
<path fill="#F06847" stroke="none" d="
M 184.3 38.1
Q 184.3 29.4 181.2 22.3 178.15 15.25 172.65 10.3 167.3 5.45 159.8 2.7 152.4 0 143.7 0 135.1 0 127.65 2.7 120.2 5.4 114.85 10.3 109.4 15.3 106.35 22.3 103.25 29.4 103.25 38.1 103.25 46.8 106.35 54.05 109.4 61.3 114.85 66.35 120.3 71.5 127.65 74.25 135.15 77.05 143.7 77.05 152.3 77.05 159.8 74.25 167.15 71.5 172.65 66.35 178.15 61.35 181.2 54.05 184.3 46.8 184.3 38.1
M 143.7 22.45
Q 146.75 22.45 149.45 23.6 152.05 24.7 154 26.75 156.05 28.9 157.05 31.7 158.15 34.75 158.15 38.1 158.15 41.55 157.05 44.7 156.05 47.55 154 49.85 152.05 52 149.45 53.2 146.85 54.4 143.7 54.4 140.65 54.4 137.95 53.2 135.3 52 133.35 49.85 131.4 47.6 130.4 44.7 129.3 41.75 129.3 38.1 129.3 34.55 130.4 31.7 131.4 28.85 133.35 26.75 135.35 24.7 137.95 23.6 140.7 22.45 143.7 22.45 Z"/>
</g>

<g id="Mask_Symbol_1_90_5_MASK_0_FILL">
<path fill="#FFFFFF" stroke="none" d="
M 575.4 484.15
Q 581.6 486.9 586.45 491.1 589.05 493.45 592.55 493.3 595.95 493.2 598.4 490.75
L 627.6 460.9
Q 630.35 458.15 630.1 454.2 629.8 450.3 626.6 447.9 613.7 438 597.95 432.1 577.45 424.5 557.6 424.5 542.8 424.5 527.8 428.2 512.7 431.9 500.7 440.25 488.55 448.65 480.95 461.7 473.3 474.8 473.3 493.5 473.3 506.8 477.55 516.4 481.9 526.05 489.1 532.75 496.35 539.6 505.7 544.25 515.05 548.95 525.25 552.3 537.45 556.35 542.65 558.3 549.9 561.05 553.6 563.05 557.65 565.15 559.1 567.15 560.7 569.2 560.7 571.95 560.7 577.4 556 579.35 551.35 581.3 545.6 581.3 533.1 581.3 521.4 575.35 515.7 572.55 511.25 569.4
L 511.25 569.35
Q 510.45 568.8 509.7 568.25 509.05 567.75 508.45 567.25 507.65 566.6 506.75 566.2 472.4 543.1 430.85 543.1 400.9 543.1 374.1 555.3 348.1 567.25 329 588.75
L 372.75 628.25
Q 383.65 616.05 398.5 609.4 413.9 602.5 430.85 602.5 451.55 602.5 468.45 612.15 468.7 612.35 469 612.55 473.15 615.5 478.7 618.7 488.35 624.2 499.3 628.35 510.55 632.45 521.9 634.5 533.35 636.6 545.9 636.6 561.2 636.6 576 632.25 590.8 627.75 602.55 618.9 614.4 609.95 621.5 596.5 628.75 582.9 628.75 564.85 628.75 549.25 622.25 538.8 615.7 528.3 605.65 521.05 595.3 513.75 583.7 509.25 570.35 504.25 561 501.35 549.7 497.55 545.75 495.6 541.05 493.45 541.05 488.85 541.05 484 545.6 481.9 550.05 479.8 557.6 479.8 565.55 479.8 575.4 484.15
M 1280.1 463.7
Q 1273.05 451.1 1261.55 443.65 1250.1 436.1 1235.45 433.1 1220.7 430.15 1206.1 430.15
L 1128.2 430.15
Q 1124.6 430.15 1122.05 432.7 1119.5 435.25 1119.5 438.8
L 1119.5 622.35
Q 1119.5 625.9 1122.05 628.4 1124.6 630.95 1128.2 630.95
L 1176.45 630.95
Q 1180.05 630.95 1182.5 628.4 1185.05 625.95 1185.05 622.35
L 1187 559.2 1223.1 626.4
Q 1224.2 628.5 1226.3 629.7 1228.35 630.95 1230.75 630.95
L 1287.4 630.95
Q 1292.5 630.95 1295 626.55 1297.5 622.05 1294.8 617.75
L 1257.05 557.45
Q 1255.15 554.4 1255.9 550.9 1256.7 547.35 1259.7 545.55 1271.25 538.6 1278.15 527.85 1287.2 513.8 1287.2 495.4 1287.2 476.45 1280.1 463.7
M 1207.3 483.05
Q 1210.55 483.35 1214.05 485.05 1217.1 486.5 1219.15 489.75 1221.1 492.8 1221.1 498.2 1221.1 503.6 1218.7 506.85 1216.25 510.2 1212.8 512 1209.2 513.9 1205.2 514.4 1201.5 514.95 1197.75 514.95
L 1193.15 514.95
Q 1189.55 514.95 1187 512.45 1184.5 509.9 1184.5 506.35
L 1184.5 491.25
Q 1184.5 487.7 1187 485.15 1189.55 482.65 1193.15 482.65
L 1200.55 482.65
Q 1203.6 482.65 1207.3 483.05
M 845.15 438.8
Q 845.15 435.25 842.6 432.7 840.15 430.15 836.55 430.15
L 786.1 430.15
Q 782.45 430.15 779.9 432.7 777.4 435.25 777.4 438.8
L 777.4 489.6
Q 777.4 493.2 774.85 495.7 772.4 498.2 768.75 498.2
L 731 498.2
Q 727.45 498.2 724.9 495.7 722.35 493.15 722.35 489.6
L 722.35 420.05
Q 722.35 416.45 719.85 413.95 717.3 411.4 713.75 411.4
L 663.8 411.4
Q 660.2 411.4 657.65 413.95 655.1 416.45 655.1 420.05
L 655.1 641.1
Q 655.1 644.65 657.65 647.2 660.2 649.7 663.8 649.7
L 713.95 649.7
Q 717.6 649.7 720.1 647.2 722.65 644.65 722.65 641.1
L 722.65 563.3
Q 722.65 559.75 725.2 557.15 727.7 554.6 731.25 554.6
L 769.05 554.6
Q 772.6 554.6 775.15 557.15 777.65 559.7 777.65 563.3
L 777.65 622.35
Q 777.65 625.95 780.2 628.4 782.75 630.95 786.35 630.95
L 836.55 630.95
Q 840.15 630.95 842.6 628.4 845.15 625.95 845.15 622.35
L 845.15 438.8
M 937.4 431.95
Q 916.55 439.5 901.65 453.2 886.5 467.2 877.95 486.7 869.3 506.5 869.3 530.8 869.3 548.2 873.75 563.25 875.5 569.55 877.95 575.35 881.05 582.55 884.5 588 891.5 600.05 901.65 609.65 916.65 623.85 937.4 631.6 958.1 639.4 982.25 639.4 1006.35 639.4 1027 631.6 1047.7 623.9 1062.9 609.65 1078.2 595.35 1086.8 575.35 1095.35 555.25 1095.35 530.8 1095.35 506.4 1086.8 486.7 1078.25 467.2 1062.9 453.2 1047.75 439.5 1027 431.95 1006.35 424.5 982.25 424.5 958.1 424.5 937.4 431.95
M 945.05 512.85
Q 947.95 505 952.9 499.65 958.55 493.6 966.1 490.3 973.5 487.2 982.25 487.2 990.9 487.2 998.15 490.3 1005.55 493.5 1010.95 499.1 1016.45 504.75 1019.4 512.85 1022.45 521.2 1022.45 530.8 1022.45 540.7 1019.4 549.25 1016.45 557.45 1010.95 563.55 1006 569.1 999.3 572.35 990.85 576.2 982.25 576.2 973.55 576.2 966.1 572.9 958.6 569.55 953.35 563.55 948.05 557.5 945.05 549.25 942 540.7 942 530.8 942 521.2 945.05 512.85
M 1460.25 477.65
L 1460.25 438.8
Q 1460.25 435.25 1457.7 432.7 1455.15 430.15 1451.55 430.15
L 1330.7 430.15
Q 1327.15 430.15 1324.6 432.7 1322.05 435.25 1322.05 438.8
L 1322.05 622.35
Q 1322.05 625.9 1324.6 628.4 1327.15 630.95 1330.7 630.95
L 1456.4 630.95
Q 1460 630.95 1462.5 628.4 1465 625.95 1465 622.35
L 1465 583.45
Q 1465 579.85 1462.5 577.3 1459.95 574.75 1456.4 574.75
L 1394.25 574.75
Q 1390.7 574.75 1388.15 572.25 1385.65 569.75 1385.65 564.75 1385.65 561.15 1388.15 558.6 1390.7 556.05 1394.25 556.05
L 1447.05 556.05
Q 1450.65 556.05 1453.15 553.55 1455.65 551.05 1455.65 547.45
L 1455.65 512.3
Q 1455.65 508.65 1453.15 506.1 1450.6 503.6 1447.05 503.6
L 1394.25 503.6
Q 1390.55 503.6 1388.15 501.05 1385.65 498.65 1385.65 494.95 1385.65 491.4 1388.15 488.85 1390.7 486.35 1394.25 486.35
L 1451.55 486.35
Q 1455.15 486.35 1457.7 483.8 1460.25 481.25 1460.25 477.65 Z"/>
</g>

<g id="Symbol_1_90_Layer5_0_FILL">
<path fill="#F06847" stroke="none" d="
M 924.7 422.65
Q 912.5 429.45 905.25 442.15 905.091796875 442.4291015625 904.95 442.7 901.2345703125 442.953515625 897.5 443.75 886.95 446 878.4 452.1 869.85 458.2 864.35 467.45 858.8 476.75 857.5 487.15 856.2 497.6 859.25 507.95 861.563671875 515.801171875 866 522.3 864.3333984375 529.8880859375 865.05 538.1 866.25 551.8 873.8 562.65 881.35 573.5 893.8 579.45 906.25 585.4 919.4 584.4 933.3 583.35 945.2 574.85 957.05 566.35 962.5 553.5 967.65 541.3 966.05 527.65 965.337890625 521.5529296875 963.4 516.05 972.6021484375 513.533984375 980.2 507.75 980.2810546875 507.68828125 980.35 507.6 986.480859375 510.7861328125 993.35 512.15 994.32421875 512.343359375 995.3 512.5 996.158984375 522.41796875 1000.85 531.25 1008.15 544.85 1022.65 552.35 1032.8416015625 557.6033203125 1043.4 558.15 1047.8802734375 567.86796875 1056.25 575.15 1065.1 582.85 1076.05 585.9 1087 588.9 1098.55 586.85 1110.1 584.8 1119.3 578.15 1128.6 571.5 1134.2 561.35 1138.45 553.7 1139.9 544.7 1141.7 533.05 1138 521.45 1134.3 509.8 1126.1 501.35 1117.9 492.9 1106.35 488.85 1103.6037109375 487.8828125 1100.85 487.2 1108.11640625 477.1486328125 1109.85 465.15 1110.95 457.55 1109.7 449.8 1108.45 442.05 1105.05 435.15 1100.7 426.4 1093.25 419.8 1085.8 413.15 1076.6 409.85 1065.85 406 1054.1 407.2 1042.35 408.45 1032.65 414.45 1030.1234375 416.0046875 1027.8 417.8 1016.4775390625 411.434375 1003.85 411.3 989.75 411.1 977.1 418.75 974.6578125 420.211328125 972.45 421.85 962.875 417.008203125 951.5 416.5 936.9 415.9 924.7 422.65
M 799.75 384.2
Q 790.9 385.4 783.1 389.45 775.3 393.5 769.25 400.1 763.15 406.65 759.75 414.75 754.9 426.25 756.05 439.2 756.9541015625 449.341796875 761.35 457.95 754.9263671875 471.6138671875 756.75 485.8 754.06640625 484.2638671875 751.15 483 746.6982421875 481.0890625 742.15 480.05 741.791796875 473.8265625 739.85 467.8 738.160546875 462.61640625 735.45 458 737.7328125 449.6751953125 737.15 441.1 736.2 427.2 727.75 415.3 719.35 403.35 706.5 397.85 693.7 392.35 679.25 394.4 664.75 396.45 654 405.3 643.25 414.15 638.45 427.95 638.3482421875 428.242578125 638.25 428.5 636.2525390625 426.2734375 633.95 424.2 625.55 416.7 614.4 413.4 603.25 410.15 592.15 411.85 581 413.6 571.4 420.15 571.228515625 420.2669921875 571.05 420.35 569.8841796875 418.598046875 568.55 416.9 559.65 405.55 546.05 400.55 534.35 396.25 521.55 398.05 508.75 399.85 498.65 407.2 488.55 414.5 482.9 426.15 478.249609375 435.6546875 477.7 445.7 468.4953125 450.4484375 461.6 458.95 452.75 469.85 450.7 483.05 448.6 496.3 453.65 509.35 457.9298828125 520.3015625 465.95 527.95 457.8279296875 527.2724609375 449.8 529.25 439.852734375 531.7458984375 431.65 538.05 427.9646484375 535.106640625 423.6 532.75 410.4 525.65 396.2 526.6 382 527.55 369.85 536.3 362.8546875 541.3376953125 358.1 547.8 355.507421875 547.5064453125 352.85 547.45 341.15 547.25 330.2 552.45 319.3 557.65 312 566.85 304.75 576.1 302.25 587.95 299.8 599.8 302.7 611.15 305.85 623.3 314.75 632.9 323.65 642.5 335.55 646.55 348.85 651.1 363.25 647.85 377.65 644.55 387.65 634.7 390.9328125 631.4865234375 393.5 627.85 403.7294921875 629.1958984375 413.6 626.35 422.4947265625 623.77421875 429.95 618.15 437.4861328125 624.2220703125 446.9 627.2 456.75 630.3 466.8 629.4 471.8396484375 628.946875 476.6 627.5 478.1494140625 630.68046875 480.15 633.65 486.6 643.1 496.85 649 507.05 654.95 518.5 655.8 531.6 656.75 543.95 650.9 549.530859375 648.2791015625 554.1 644.65 554.215625 644.75390625 554.3 644.85 562.95 654.65 574.8 659.05 586.6 663.4 599.55 661.55 612.55 659.7 622.65 652.2 629.7939453125 646.92109375 634.65 639.45 636.7435546875 645.0359375 640.2 650.3 648.9 663.6 662.75 669.45 674.7 674.5 688.15 673 701.65 671.55 712.2 663.95 722.75 656.4 728.55 644.15 734.3 631.9 733.4 618.95 732.612890625 608.2203125 727.4 598.6 732.944921875 590.254296875 734.85 580.15 741.6740234375 579.6953125 748.2 577.35 754.55234375 575.0671875 759.95 571.2 760.996875 571.891015625 762.05 572.5 761.98046875 578.9443359375 763.6 585.6 765.5263671875 593.6265625 769.45 600.25 762.075390625 608.1740234375 758.45 619.05 754.1 632.1 756.7 645.05 759.35 658.4 768.9 669 778.4 679.55 791.4 683.65 804.35 687.75 818.25 684.45 832.1 681.2 841.9 671.75 851.45 662.65 855.35 649.45 859.25 636.25 856.2 623.4 854.3421875 615.4419921875 850.05 608.55 851.707421875 606.77890625 853.2 604.85 862.15 593.2 863.4 577.8 864.5908203125 563.1294921875 858.35 550.7 859.77421875 546.7068359375 860.55 542.4 862.05 533.95 860.6 525.3 860.516015625 524.7833984375 860.4 524.25 859.62265625 511.3486328125 853.25 500.95 855.3033203125 496.6205078125 856.5 491.85 860.15 477.35 854.8 462.45 853.7578125 459.5203125 852.45 456.8 856.145703125 449.13515625 857.15 440.2 858.55 427.3 853.9 415.7 849.3 404.1 839.35 395.75 829.4 387.4 817.2 384.8 808.65 382.95 799.75 384.2
M 553.95 492.5
Q 555.8240234375 491.4580078125 557.55 490.2 560.23671875 494.2193359375 563.7 497.75 567.6171875 501.74296875 572.1 504.7 571.4623046875 504.9490234375 570.8 505.2 566.14609375 499.8181640625 560 495.85 557.08125 493.963671875 553.95 492.5
M 617.65 509.75
Q 625.3087890625 507.0197265625 631.55 502.05 630.26875 506.3734375 629.7 511 629.104296875 515.6697265625 629.3 520.2 626.7169921875 517.057421875 623.55 514.25 620.7150390625 511.75234375 617.65 509.75
M 632.65 580.05
Q 633.7251953125 578.4298828125 634.65 576.7 635.3 581.740234375 636.8 586.4 634.9607421875 583.064453125 632.65 580.05 Z"/>
</g>
</defs>

<g transform="matrix( 1.183380126953125, 0, 0, 1.183380126953125, -179.95,171.5) ">
<g transform="matrix( 1, 0, 0, 1, 1322.05,430.15) ">
<g transform="matrix( 1.4498138427734375, 0, 0, 1.4498138427734375, -888.65,-137.15) ">
<use xlink:href="#e_0_Layer0_0_FILL"/>
</g>
</g>

<g transform="matrix( 1, 0, 0, 1, 1119.5,430.15) ">
<g transform="matrix( 1.4498138427734375, 0, 0, 1.4498138427734375, -686.1,-137.15) ">
<use xlink:href="#r_0_Layer0_0_FILL"/>
</g>
</g>

<g transform="matrix( 1, 0, 0, 1, 869.35,424.5) ">
<g transform="matrix( 1.20843505859375, 0, 0, 1.20843505859375, -331.2,-90.55) ">
<use xlink:href="#o_0_Layer0_0_FILL"/>
</g>
</g>

<g transform="matrix( 1, 0, 0, 1, 655.1,430.15) ">
<g transform="matrix( 1.4498138427734375, 0, 0, 1.4498138427734375, -189.65,-137.15) ">
<use xlink:href="#h_0_Layer0_0_FILL"/>
</g>
</g>

<g transform="matrix( 1.4498138427734375, 0, 0, 1.4498138427734375, 465.45,293) ">
<use xlink:href="#Symbol_1_90_Layer6_4_FILL"/>
</g>

<g transform="matrix( 1, 0, 0, 1, 747.6,296.05) ">
<g transform="matrix( 1.4498138427734375, 0, 0, 1.4498138427734375, -282.15,-3.05) ">
<use xlink:href="#n_0_Layer0_0_FILL"/>
</g>
</g>

<g transform="matrix( 1, 0, 0, 1, 615.15,293) ">
<g transform="matrix( 1.4498138427734375, 0, 0, 1.4498138427734375, -149.7,0) ">
<use xlink:href="#o2_0_Layer0_0_FILL"/>
</g>
</g>

<mask id="Mask_Mask_1">
<g transform="matrix( 1, 0, 0, 1, 0,0) ">
<use xlink:href="#Mask_Symbol_1_90_5_MASK_0_FILL"/>
</g>
</mask>

<g mask="url(#Mask_Mask_1)">
<g transform="matrix( 1, 0, 0, 1, 0,0) ">
<use xlink:href="#Symbol_1_90_Layer5_0_FILL"/>
</g>
</g>
</g>
</svg>
