
<svg xmlns="http://www.w3.org/2000/svg" version="1.1" xmlns:xlink="http://www.w3.org/1999/xlink" preserveAspectRatio="none" x="0px" y="0px" width="1920px" height="1600px" viewBox="0 0 1920 1600">
<defs>
<g id="Symbol_1_105_Layer6_0_FILL">
<path fill="#F06847" stroke="none" d="
M 592.55 493.3
Q 595.95 493.2 598.4 490.75
L 627.6 460.9
Q 630.35 458.15 630.1 454.2 629.8 450.3 626.6 447.9 613.7 438 597.95 432.1 577.45 424.5 557.6 424.5 542.8 424.5 527.8 428.2 512.7 431.9 500.7 440.25 488.55 448.65 480.95 461.7 473.3 474.8 473.3 493.5 473.3 506.8 477.55 516.4 481.9 526.05 489.1 532.75 496.35 539.6 505.7 544.25 515.05 548.95 525.25 552.3 537.45 556.35 542.65 558.3 549.9 561.05 553.6 563.05 557.65 565.15 559.1 567.15 560.7 569.2 560.7 571.95 560.7 577.4 556 579.35 551.35 581.3 545.6 581.3 533.1 581.3 521.4 575.35 513.8 571.6 508.45 567.25 505.75 565.15 502.35 565.35 498.95 565.65 496.7 568.1
L 467.7 599.65
Q 465 602.45 465.45 606.4 465.8 610.2 469 612.55 473.15 615.5 478.7 618.7 488.35 624.2 499.3 628.35 510.55 632.45 521.9 634.5 533.35 636.6 545.9 636.6 561.2 636.6 576 632.25 590.8 627.75 602.55 618.9 614.4 609.95 621.5 596.5 628.75 582.9 628.75 564.85 628.75 549.25 622.25 538.8 615.7 528.3 605.65 521.05 595.3 513.75 583.7 509.25 570.35 504.25 561 501.35 549.7 497.55 545.75 495.6 541.05 493.45 541.05 488.85 541.05 484 545.6 481.9 550.05 479.8 557.6 479.8 565.55 479.8 575.4 484.15 581.6 486.9 586.45 491.1 589.05 493.45 592.55 493.3
M 1261.55 443.65
Q 1250.1 436.1 1235.45 433.1 1220.7 430.15 1206.1 430.15
L 1128.2 430.15
Q 1124.6 430.15 1122.05 432.7 1119.5 435.25 1119.5 438.8
L 1119.5 622.35
Q 1119.5 625.9 1122.05 628.4 1124.6 630.95 1128.2 630.95
L 1176.45 630.95
Q 1180.05 630.95 1182.5 628.4 1185.05 625.95 1185.05 622.35
L 1187 559.2 1223.1 626.4
Q 1224.2 628.5 1226.3 629.7 1228.35 630.95 1230.75 630.95
L 1287.4 630.95
Q 1292.5 630.95 1295 626.55 1297.5 622.05 1294.8 617.75
L 1257.05 557.45
Q 1255.15 554.4 1255.9 550.9 1256.7 547.35 1259.7 545.55 1271.25 538.6 1278.15 527.85 1287.2 513.8 1287.2 495.4 1287.2 476.45 1280.1 463.7 1273.05 451.1 1261.55 443.65
M 1184.5 491.25
Q 1184.5 487.7 1187 485.15 1189.55 482.65 1193.15 482.65
L 1200.55 482.65
Q 1203.6 482.65 1207.3 483.05 1210.55 483.35 1214.05 485.05 1217.1 486.5 1219.15 489.75 1221.1 492.8 1221.1 498.2 1221.1 503.6 1218.7 506.85 1216.25 510.2 1212.8 512 1209.2 513.9 1205.2 514.4 1201.5 514.95 1197.75 514.95
L 1193.15 514.95
Q 1189.55 514.95 1187 512.45 1184.5 509.9 1184.5 506.35
L 1184.5 491.25
M 842.6 432.7
Q 840.15 430.15 836.55 430.15
L 786.1 430.15
Q 782.45 430.15 779.9 432.7 777.4 435.25 777.4 438.8
L 777.4 489.6
Q 777.4 493.2 774.85 495.7 772.4 498.2 768.75 498.2
L 731 498.2
Q 727.45 498.2 724.9 495.7 722.35 493.15 722.35 489.6
L 722.35 438.8
Q 722.35 435.25 719.8 432.7 717.35 430.15 713.75 430.15
L 663.8 430.15
Q 660.15 430.15 657.6 432.7 655.1 435.25 655.1 438.8
L 655.1 622.35
Q 655.1 625.9 657.6 628.4 660.15 630.95 663.8 630.95
L 713.95 630.95
Q 717.55 630.95 720.1 628.4 722.65 625.95 722.65 622.35
L 722.65 563.3
Q 722.65 559.75 725.2 557.15 727.7 554.6 731.25 554.6
L 769.05 554.6
Q 772.6 554.6 775.15 557.15 777.65 559.7 777.65 563.3
L 777.65 622.35
Q 777.65 625.95 780.2 628.4 782.75 630.95 786.35 630.95
L 836.55 630.95
Q 840.15 630.95 842.6 628.4 845.15 625.95 845.15 622.35
L 845.15 438.8
Q 845.15 435.25 842.6 432.7
M 937.4 431.95
Q 916.55 439.5 901.65 453.2 886.5 467.2 877.95 486.7 869.3 506.5 869.3 530.8 869.3 548.2 873.75 563.25 875.5 569.55 877.95 575.35 881.05 582.55 884.5 588 891.5 600.05 901.65 609.65 916.65 623.85 937.4 631.6 958.1 639.4 982.25 639.4 1006.35 639.4 1027 631.6 1047.7 623.9 1062.9 609.65 1078.2 595.35 1086.8 575.35 1095.35 555.25 1095.35 530.8 1095.35 506.4 1086.8 486.7 1078.25 467.2 1062.9 453.2 1047.75 439.5 1027 431.95 1006.35 424.5 982.25 424.5 958.1 424.5 937.4 431.95
M 942 530.8
Q 942 521.2 945.05 512.85 947.95 505 952.9 499.65 958.55 493.6 966.1 490.3 973.5 487.2 982.25 487.2 990.9 487.2 998.15 490.3 1005.55 493.5 1010.95 499.1 1016.45 504.75 1019.4 512.85 1022.45 521.2 1022.45 530.8 1022.45 540.7 1019.4 549.25 1016.45 557.45 1010.95 563.55 1006 569.1 999.3 572.35 990.85 576.2 982.25 576.2 973.55 576.2 966.1 572.9 958.6 569.55 953.35 563.55 948.05 557.5 945.05 549.25 942 540.7 942 530.8
M 1460.25 477.65
L 1460.25 438.8
Q 1460.25 435.25 1457.7 432.7 1455.15 430.15 1451.55 430.15
L 1330.7 430.15
Q 1327.15 430.15 1324.6 432.7 1322.05 435.25 1322.05 438.8
L 1322.05 622.35
Q 1322.05 625.9 1324.6 628.4 1327.15 630.95 1330.7 630.95
L 1456.4 630.95
Q 1460 630.95 1462.5 628.4 1465 625.95 1465 622.35
L 1465 583.45
Q 1465 579.85 1462.5 577.3 1459.95 574.75 1456.4 574.75
L 1394.25 574.75
Q 1390.7 574.75 1388.15 572.25 1385.65 569.75 1385.65 564.75 1385.65 561.15 1388.15 558.6 1390.7 556.05 1394.25 556.05
L 1493.95 556.05
Q 1497.5 556.05 1500.05 553.55 1502.55 551.05 1502.55 547.45
L 1502.55 512.3
Q 1502.55 508.7 1500.05 506.15 1497.5 503.6 1493.95 503.6
L 1394.25 503.6
Q 1390.55 503.6 1388.15 501.05 1385.65 498.65 1385.65 494.95 1385.65 491.4 1388.15 488.85 1390.7 486.35 1394.25 486.35
L 1451.55 486.35
Q 1455.15 486.35 1457.7 483.8 1460.25 481.25 1460.25 477.65 Z"/>

<path fill="#F6C746" stroke="none" d="
M 673.8 293
Q 661.3 293 650.5 296.9 639.7 300.85 631.95 307.95 624.05 315.2 619.65 325.35 615.15 335.6 615.15 348.25 615.15 360.85 619.65 371.35 624.05 381.85 631.95 389.2 639.85 396.65 650.5 400.65 661.4 404.7 673.8 404.7 686.25 404.7 697.15 400.65 707.8 396.65 715.75 389.2 723.75 381.95 728.15 371.35 732.65 360.85 732.65 348.25 732.65 335.6 728.15 325.35 723.75 315.1 715.75 307.95 708 300.9 697.15 296.9 686.4 293 673.8 293
M 688.7 331.8
Q 691.7 334.9 693.15 338.95 694.75 343.4 694.75 348.25 694.75 353.25 693.15 357.8 691.7 361.95 688.7 365.25 685.9 368.4 682.1 370.15 678.35 371.85 673.8 371.85 669.35 371.85 665.45 370.15 661.6 368.4 658.8 365.25 655.95 362 654.5 357.8 652.9 353.55 652.9 348.25 652.9 343.1 654.5 338.95 655.95 334.85 658.8 331.8 661.7 328.8 665.45 327.2 669.45 325.55 673.8 325.55 678.2 325.55 682.1 327.2 685.9 328.8 688.7 331.8
M 779.5 296.05
L 753.45 296.05
Q 751 296.05 749.3 297.8 747.6 299.45 747.6 301.9
L 747.6 395.8
Q 747.6 398.25 749.3 399.9 751 401.65 753.45 401.65
L 775.2 401.65
Q 777.75 401.65 779.5 399.85 781.2 398.05 781.05 395.55
L 779.75 351.2 780.4 351.2 807.9 398.75
Q 809.65 401.65 813.05 401.65
L 840 401.65
Q 842.45 401.65 844.15 399.9 845.9 398.25 845.9 395.8
L 845.9 301.9
Q 845.9 299.45 844.15 297.8 842.45 296.05 840 296.05
L 818.25 296.05
Q 815.8 296.05 814 297.85 812.25 299.65 812.3 302.15
L 813.7 349.6 813.05 349.6 784.65 299
Q 783.9 297.65 779.5 296.05 Z"/>
</g>

<g id="Mask_Symbol_1_105_5_MASK_0_FILL">
<path fill="#FFFFFF" stroke="none" d="
M 575.4 484.15
Q 581.6 486.9 586.45 491.1 589.05 493.45 592.55 493.3 595.95 493.2 598.4 490.75
L 627.6 460.9
Q 630.35 458.15 630.1 454.2 629.8 450.3 626.6 447.9 613.7 438 597.95 432.1 577.45 424.5 557.6 424.5 542.8 424.5 527.8 428.2 512.7 431.9 500.7 440.25 488.55 448.65 480.95 461.7 473.3 474.8 473.3 493.5 473.3 506.8 477.55 516.4 481.9 526.05 489.1 532.75 496.35 539.6 505.7 544.25 515.05 548.95 525.25 552.3 537.45 556.35 542.65 558.3 549.9 561.05 553.6 563.05 557.65 565.15 559.1 567.15 560.7 569.2 560.7 571.95 560.7 577.4 556 579.35 551.35 581.3 545.6 581.3 533.1 581.3 521.4 575.35 515.6818359375 572.528515625 511.2 569.35
L 511.25 569.35
Q 510.4732421875 568.78515625 509.7 568.2 509.0580078125 567.7443359375 508.45 567.25 507.6302734375 566.6123046875 506.75 566.15 472.4017578125 543.1 430.85 543.1 400.9 543.1 374.1 555.3 348.1 567.25 329 588.75
L 372.75 628.25
Q 383.65 616.05 398.5 609.4 413.9 602.5 430.85 602.5 451.5384765625 602.5 468.45 612.1 468.7138671875 612.33984375 469 612.55 473.15 615.5 478.7 618.7 488.35 624.2 499.3 628.35 510.55 632.45 521.9 634.5 533.35 636.6 545.9 636.6 561.2 636.6 576 632.25 590.8 627.75 602.55 618.9 614.4 609.95 621.5 596.5 628.75 582.9 628.75 564.85 628.75 549.25 622.25 538.8 615.7 528.3 605.65 521.05 595.3 513.75 583.7 509.25 570.35 504.25 561 501.35 549.7 497.55 545.75 495.6 541.05 493.45 541.05 488.85 541.05 484 545.6 481.9 550.05 479.8 557.6 479.8 565.55 479.8 575.4 484.15
M 1280.1 463.7
Q 1273.05 451.1 1261.55 443.65 1250.1 436.1 1235.45 433.1 1220.7 430.15 1206.1 430.15
L 1128.2 430.15
Q 1124.6 430.15 1122.05 432.7 1119.5 435.25 1119.5 438.8
L 1119.5 622.35
Q 1119.5 625.9 1122.05 628.4 1124.6 630.95 1128.2 630.95
L 1176.45 630.95
Q 1180.05 630.95 1182.5 628.4 1185.05 625.95 1185.05 622.35
L 1185.05 559.2 1187 559.2 1223.1 626.4
Q 1224.2 628.5 1226.3 629.7 1228.35 630.95 1230.75 630.95
L 1287.4 630.95
Q 1292.5 630.95 1295 626.55 1297.5 622.05 1294.8 617.75
L 1257.05 557.45
Q 1255.15 554.4 1255.9 550.9 1256.7 547.35 1259.7 545.55 1271.25 538.6 1278.15 527.85 1287.2 513.8 1287.2 495.4 1287.2 476.45 1280.1 463.7
M 1184.5 491.25
Q 1184.5 487.7 1187 485.15 1189.55 482.65 1193.15 482.65
L 1200.55 482.65
Q 1203.6 482.65 1207.3 483.05 1210.55 483.35 1214.05 485.05 1217.1 486.5 1219.15 489.75 1221.1 492.8 1221.1 498.2 1221.1 503.6 1218.7 506.85 1216.25 510.2 1212.8 512 1209.2 513.9 1205.2 514.4 1201.5 514.95 1197.75 514.95
L 1193.15 514.95
Q 1189.55 514.95 1187 512.45 1184.5 509.9 1184.5 506.35
L 1184.5 491.25
M 845.15 438.8
Q 845.15 435.25 842.6 432.7 840.15 430.15 836.55 430.15
L 786.1 430.15
Q 782.45 430.15 779.9 432.7 777.4 435.25 777.4 438.8
L 777.4 489.6
Q 777.4 493.2 774.85 495.7 772.4 498.2 768.75 498.2
L 731 498.2
Q 727.45 498.2 724.9 495.7 722.35 493.15 722.35 489.6
L 722.35 438.8
Q 722.35 435.25 719.8 432.7 717.35 430.15 713.75 430.15
L 663.8 430.15
Q 660.15 430.15 657.6 432.7 655.1 435.25 655.1 438.8
L 655.1 622.35
Q 655.1 625.9 657.6 628.4 660.15 630.95 663.8 630.95
L 713.95 630.95
Q 717.55 630.95 720.1 628.4 722.65 625.95 722.65 622.35
L 722.65 563.3
Q 722.65 559.75 725.2 557.15 727.7 554.6 731.25 554.6
L 769.05 554.6
Q 772.6 554.6 775.15 557.15 777.65 559.7 777.65 563.3
L 777.65 622.35
Q 777.65 625.95 780.2 628.4 782.75 630.95 786.35 630.95
L 836.55 630.95
Q 840.15 630.95 842.6 628.4 845.15 625.95 845.15 622.35
L 845.15 438.8
M 937.4 431.95
Q 916.55 439.5 901.65 453.2 886.5 467.2 877.95 486.7 869.3 506.5 869.3 530.8 869.3 548.2 873.75 563.25 875.5 569.55 877.95 575.35 881.05 582.55 884.5 588 891.5 600.05 901.65 609.65 916.65 623.85 937.4 631.6 958.1 639.4 982.25 639.4 1006.35 639.4 1027 631.6 1047.7 623.9 1062.9 609.65 1078.2 595.35 1086.8 575.35 1095.35 555.25 1095.35 530.8 1095.35 506.4 1086.8 486.7 1078.25 467.2 1062.9 453.2 1047.75 439.5 1027 431.95 1006.35 424.5 982.25 424.5 958.1 424.5 937.4 431.95
M 942 530.8
Q 942 521.2 945.05 512.85 947.95 505 952.9 499.65
L 953.35 499.1
Q 958.55 493.6 966.1 490.3 973.5 487.2 982.25 487.2 990.9 487.2 998.15 490.3 1005.55 493.5 1010.95 499.1 1016.45 504.75 1019.4 512.85 1022.45 521.2 1022.45 530.8 1022.45 540.7 1019.4 549.25 1016.45 557.45 1010.95 563.55 1006 569.1 999.3 572.35
L 998.15 572.9
Q 990.85 576.2 982.25 576.2 973.55 576.2 966.1 572.9 958.6 569.55 953.35 563.55 948.05 557.5 945.05 549.25 942 540.7 942 530.8
M 1460.25 477.65
L 1460.25 438.8
Q 1460.25 435.25 1457.7 432.7 1455.15 430.15 1451.55 430.15
L 1330.7 430.15
Q 1327.15 430.15 1324.6 432.7 1322.05 435.25 1322.05 438.8
L 1322.05 622.35
Q 1322.05 625.9 1324.6 628.4 1327.15 630.95 1330.7 630.95
L 1456.4 630.95
Q 1460 630.95 1462.5 628.4 1465 625.95 1465 622.35
L 1465 583.45
Q 1465 579.85 1462.5 577.3 1459.95 574.75 1456.4 574.75
L 1394.25 574.75
Q 1390.7 574.75 1388.15 572.25 1385.65 569.75 1385.65 566.15
L 1385.65 564.75
Q 1385.65 561.15 1388.15 558.6 1390.7 556.05 1394.25 556.05
L 1447.05 556.05
Q 1450.65 556.05 1453.15 553.55 1455.65 551.05 1455.65 547.45
L 1455.65 512.3
Q 1455.65 508.65 1453.15 506.1 1450.6 503.6 1447.05 503.6
L 1394.25 503.6
Q 1390.55 503.6 1388.15 501.05 1385.65 498.65 1385.65 494.95 1385.65 491.4 1388.15 488.85 1390.7 486.35 1394.25 486.35
L 1451.55 486.35
Q 1455.15 486.35 1457.7 483.8 1460.25 481.25 1460.25 477.65 Z"/>
</g>

<g id="Symbol_1_105_Layer0_0_FILL">
<path fill="#9D553E" stroke="none" d="
M 673.8 293
Q 661.3 293 650.5 296.9 639.7 300.85 631.95 307.95 624.05 315.2 619.65 325.35 615.15 335.6 615.15 348.25 615.15 360.85 619.65 371.35 624.05 381.85 631.95 389.2 639.85 396.65 650.5 400.65 661.4 404.7 673.8 404.7 686.25 404.7 697.15 400.65 707.8 396.65 715.75 389.2 723.75 381.95 728.15 371.35 732.65 360.85 732.65 348.25 732.65 335.6 728.15 325.35 723.75 315.1 715.75 307.95 708 300.9 697.15 296.9 686.4 293 673.8 293
M 688.7 331.8
Q 691.7 334.9 693.15 338.95 694.75 343.4 694.75 348.25 694.75 353.25 693.15 357.8 691.7 361.95 688.7 365.25 685.9 368.4 682.1 370.15 678.35 371.85 673.8 371.85 669.35 371.85 665.45 370.15 661.6 368.4 658.8 365.25 655.95 362 654.5 357.8 652.9 353.55 652.9 348.25 652.9 343.1 654.5 338.95 655.95 334.85 658.8 331.8 661.7 328.8 665.45 327.2 669.45 325.55 673.8 325.55 678.2 325.55 682.1 327.2 685.9 328.8 688.7 331.8
M 779.5 296.05
L 753.45 296.05
Q 751 296.05 749.3 297.8 747.6 299.45 747.6 301.9
L 747.6 395.8
Q 747.6 398.25 749.3 399.9 751 401.65 753.45 401.65
L 775.2 401.65
Q 777.75 401.65 779.5 399.85 781.2 398.05 781.05 395.55
L 779.75 351.2 780.4 351.2 807.9 398.75
Q 809.65 401.65 813.05 401.65
L 840 401.65
Q 842.45 401.65 844.15 399.9 845.9 398.25 845.9 395.8
L 845.9 301.9
Q 845.9 299.45 844.15 297.8 842.45 296.05 840 296.05
L 818.25 296.05
Q 815.8 296.05 814 297.85 812.25 299.65 812.3 302.15
L 813.7 349.6 813.05 349.6 784.65 299
Q 783.9 297.65 779.5 296.05 Z"/>
</g>

<g id="Mask_3_MASK_0_FILL">
<path fill="#FFFFFF" stroke="none" d="
M 1584.4 826.2
L 1584.4 718.2 564.15 718.2 564.15 826.2 1584.4 826.2 Z"/>
</g>

<g id="Symbol_3_0_Layer0_0_FILL">
<path fill="#F06847" stroke="none" d="
M 231.5 439.95
Q 228.2 437.65 224.05 436.65 219.85 435.6 215.55 435.6
L 201.9 435.6
Q 201.45 435.6 201.15 435.95 200.85 436.25 200.85 436.7
L 200.85 475.2
Q 200.85 475.65 201.15 475.95 201.45 476.25 201.9 476.25
L 216 476.25
Q 220.1 476.25 224.25 475.1 228.4 473.85 231.6 471.4 234.9 468.9 236.8 465.05 238.8 461.05 238.8 455.85 238.8 450.15 236.75 446.2 234.8 442.35 231.5 439.95
M 210.4 445.1
Q 210.4 444.65 210.75 444.35 211.05 444 211.5 444
L 215.3 444
Q 217.8 444 220.2 444.6 222.5 445.1 224.45 446.5 226.35 447.85 227.45 450.1 228.55 452.35 228.55 455.85 228.55 459.3 227.45 461.5 226.35 463.75 224.45 465.2 222.55 466.55 220.15 467.15 217.75 467.75 215.05 467.75
L 211.5 467.75
Q 211.05 467.75 210.75 467.45 210.4 467.15 210.4 466.7
L 210.4 445.1 Z"/>
</g>

<g id="Symbol_3_0_Layer0_1_FILL">
<path fill="#F06847" stroke="none" d="
M 256.85 436.7
Q 256.85 436.25 256.55 435.95 256.25 435.6 255.75 435.6
L 248.1 435.6
Q 247.65 435.6 247.35 435.95 247 436.25 247 436.7
L 247 475.2
Q 247 475.65 247.35 475.95 247.65 476.25 248.1 476.25
L 255.75 476.25
Q 256.85 476.25 256.85 475.2
L 256.85 436.7 Z"/>
</g>

<g id="Symbol_3_0_Layer0_2_FILL">
<path fill="#F06847" stroke="none" d="
M 287.45 443.2
Q 290.5 443.2 292.8 444.25 294.6 445.1 295.8 446.2 296.15 446.5 296.6 446.45 297.1 446.45 297.4 446.1
L 302.05 440.75
Q 302.35 440.4 302.3 439.95 302.3 439.45 301.95 439.2 299.45 437.15 296.05 436 292.05 434.55 287.1 434.55 282.55 434.55 278.45 436 274.55 437.45 271.45 440.3 268.5 443.05 266.75 447.05 265.05 451.15 265.05 455.9 265.05 460.55 266.75 464.65 268.4 468.5 271.35 471.4 274.35 474.2 278.4 475.75 282.45 477.3 287.4 477.3 292 477.3 296.1 476.3 299.55 475.5 302.45 474.1 303.1 473.8 303.1 473.1
L 303.1 453.35
Q 303.1 452.9 302.8 452.6 302.45 452.25 302 452.25
L 287.4 452.25
Q 286.95 452.25 286.65 452.6 286.3 452.9 286.3 453.35
L 286.3 459.1
Q 286.3 459.55 286.65 459.9 286.95 460.2 287.4 460.2
L 292.95 460.2
Q 293.4 460.2 293.75 460.55 294.05 460.85 294.05 461.3
L 294.05 466.85
Q 294.05 467.65 293.35 467.9
L 291.2 468.45
Q 289.45 468.7 287.9 468.7 285.05 468.7 282.6 467.75 280.2 466.75 278.7 465.1 277.15 463.4 276.3 461.05 275.5 458.55 275.5 455.9 275.5 453.15 276.4 450.8 277.3 448.5 278.9 446.8 280.5 445.15 282.7 444.15 284.8 443.2 287.45 443.2 Z"/>
</g>

<g id="Symbol_3_0_Layer0_3_FILL">
<path fill="#F06847" stroke="none" d="
M 322.7 436.7
Q 322.7 436.25 322.4 435.95 322.05 435.6 321.6 435.6
L 313.95 435.6
Q 313.45 435.6 313.15 435.95 312.85 436.25 312.85 436.7
L 312.85 475.15
Q 312.85 475.6 313.15 475.95 313.45 476.25 313.95 476.25
L 321.6 476.25
Q 322.05 476.25 322.4 475.95 322.7 475.6 322.7 475.15
L 322.7 436.7 Z"/>
</g>

<g id="Symbol_3_0_Layer0_4_FILL">
<path fill="#F06847" stroke="none" d="
M 340.1 444.35
Q 340.4 444.65 340.4 445.1
L 340.4 475.15
Q 340.4 475.6 340.75 475.95 341.05 476.25 341.5 476.25
L 349.1 476.25
Q 349.55 476.25 349.9 475.95 350.2 475.6 350.2 475.15
L 350.2 445.1
Q 350.2 444.65 350.55 444.35 350.85 444 351.3 444
L 360.6 444
Q 361.05 444 361.4 443.7 361.7 443.35 361.7 442.9
L 361.7 436.7
Q 361.7 436.25 361.4 435.95 361.05 435.6 360.6 435.6
L 330 435.6
Q 329.55 435.6 329.25 435.95 328.9 436.25 328.9 436.7
L 328.9 442.9
Q 328.9 443.35 329.25 443.7 329.55 444 330 444
L 339.3 444
Q 339.75 444 340.1 444.35 Z"/>
</g>

<g id="Symbol_3_0_Layer0_5_FILL">
<path fill="#F06847" stroke="none" d="
M 386.3 436.3
Q 386.05 435.6 385.3 435.6
L 377.25 435.6
Q 376.55 435.6 376.2 436.3
L 360.1 474.75
Q 359.85 475.3 360.2 475.75 360.5 476.25 361.1 476.25
L 369.35 476.25
Q 370.15 476.25 370.4 475.55
L 372.85 469
Q 373.1 468.3 373.85 468.3
L 388.1 468.3
Q 388.85 468.3 389.1 469
L 391.7 475.55
Q 392 476.25 392.75 476.25
L 401.25 476.25
Q 401.85 476.25 402.15 475.75 402.5 475.3 402.25 474.75
L 386.3 436.3
M 385.6 458.95
Q 385.8 459.5 385.5 459.95 385.15 460.4 384.6 460.4
L 377.5 460.4
Q 376.95 460.4 376.6 459.95 376.25 459.5 376.45 458.95
L 380.05 449.3
Q 380.3 448.55 381.1 448.55 381.85 448.6 382.1 449.3
L 385.6 458.95 Z"/>
</g>

<g id="Symbol_3_0_Layer0_6_FILL">
<path fill="#F06847" stroke="none" d="
M 417.9 436.7
Q 417.9 436.25 417.6 435.95 417.25 435.6 416.8 435.6
L 409.1 435.6
Q 408.65 435.6 408.35 435.95 408 436.25 408 436.7
L 408 475.15
Q 408 475.6 408.35 475.95 408.65 476.25 409.1 476.25
L 432.5 476.25
Q 432.95 476.25 433.3 475.95 433.6 475.6 433.6 475.15
L 433.6 468.8
Q 433.6 468.35 433.3 468.05 432.95 467.7 432.5 467.7
L 419 467.7
Q 418.55 467.7 418.25 467.4 417.9 467.05 417.9 466.6
L 417.9 436.7 Z"/>
</g>
</defs>

<g transform="matrix( 1.183380126953125, 0, 0, 1.183380126953125, -179.95,171.5) ">
<g transform="matrix( 1, 0, 0, 1, 0,0) ">
<use xlink:href="#Symbol_1_105_Layer6_0_FILL"/>
</g>

<mask id="Mask_Mask_1">
<g transform="matrix( 1, 0, 0, 1, 0,0) ">
<use xlink:href="#Mask_Symbol_1_105_5_MASK_0_FILL"/>
</g>
</mask>

<g mask="url(#Mask_Mask_1)"/>

<g transform="matrix( 1, 0, 0, 1, 0,0) ">
<use xlink:href="#Symbol_1_105_Layer0_0_FILL"/>
</g>
</g>

<mask id="Mask_Mask_2">
<g transform="matrix( 1, 0, 0, 1, 0,200) ">
<use xlink:href="#Mask_3_MASK_0_FILL"/>
</g>
</mask>

<g mask="url(#Mask_Mask_2)">
<g transform="matrix( 1, 0, 0, 1, 593.25,1031.1) ">
<g transform="matrix( 1.0946044921875, 0, 0, 1.0946044921875, -219.85,-475.65) ">
<use xlink:href="#Symbol_3_0_Layer0_0_FILL"/>
</g>

<g transform="matrix( 1.0946044921875, 0, 0, 1.0946044921875, -219.85,-475.65) ">
<use xlink:href="#Symbol_3_0_Layer0_1_FILL"/>
</g>

<g transform="matrix( 1.0946044921875, 0, 0, 1.0946044921875, -219.85,-475.65) ">
<use xlink:href="#Symbol_3_0_Layer0_2_FILL"/>
</g>

<g transform="matrix( 1.0946044921875, 0, 0, 1.0946044921875, -219.85,-475.65) ">
<use xlink:href="#Symbol_3_0_Layer0_3_FILL"/>
</g>

<g transform="matrix( 1.0946044921875, 0, 0, 1.0946044921875, -219.85,-475.65) ">
<use xlink:href="#Symbol_3_0_Layer0_4_FILL"/>
</g>

<g transform="matrix( 1.0946044921875, 0, 0, 1.0946044921875, -219.85,-475.65) ">
<use xlink:href="#Symbol_3_0_Layer0_5_FILL"/>
</g>

<g transform="matrix( 1.0946044921875, 0, 0, 1.0946044921875, -219.85,-475.65) ">
<use xlink:href="#Symbol_3_0_Layer0_6_FILL"/>
</g>
</g>
</g>

<g mask="url(#Mask_Mask_2)"/>

<g mask="url(#Mask_Mask_2)"/>
</svg>
