<?xml version="1.0" encoding="UTF-8"?><svg id="a" xmlns="http://www.w3.org/2000/svg" viewBox="0 0 630.92 205.98"><defs><style>.b{fill:#f6c746;}.c{fill:#fffbf0;}.d{fill:#f06847;}.e{fill:#203931;}</style></defs><path class="d" d="M373.49,58.03c0,24.42-11.24,46.32-23.84,67.45-16,26.88-34.19,52.52-34.19,80.5,0-28-18.2-53.64-34.22-80.54-12.57-21.12-23.8-43.01-23.8-67.41,0-32.05,25.98-58.03,58.02-58.03s58.03,25.98,58.03,58.03Z"/><circle class="e" cx="315.46" cy="58.03" r="17.7"/><path class="b" d="M630.92,117.93c-24.86-7.04-30.73-27.78-65.34-27.78s-40.49,20.76-65.37,27.79c24.84,7.05,30.73,27.77,65.34,27.77s40.5-20.75,65.37-27.78Z"/><path class="b" d="M297.45,117.91c-24.82-7.05-30.71-27.77-65.31-27.77s-40.5,20.76-65.39,27.79c24.83,7.05,30.72,27.77,65.32,27.77s40.48-20.77,65.38-27.8Z"/><path class="b" d="M464.18,117.92c-24.83-7.05-30.72-27.77-65.32-27.77s-40.48,20.77-65.38,27.8c24.82,7.05,30.71,27.77,65.31,27.77s40.5-20.76,65.39-27.79Z"/><path class="b" d="M130.71,117.92c-24.84-7.05-30.73-27.77-65.34-27.77S24.87,110.89,0,117.93c24.86,7.04,30.73,27.78,65.34,27.78s40.49-20.76,65.37-27.79Z"/><path class="c" d="M333.48,117.94c-5.09-1.45-10.98-2.32-18.07-2.32s-12.9.86-17.96,2.29c5.09,1.45,10.98,2.32,18.07,2.32s12.9-.86,17.96-2.29Z"/><path class="e" d="M349.65,125.48c-16,26.88-34.19,52.52-34.19,80.5,0-28-18.2-53.64-34.22-80.54,8.4-5.43,18.24-9.82,34.17-9.82s25.82,4.41,34.24,9.86Z"/></svg>