<?xml version="1.0" encoding="UTF-8"?><svg id="a" xmlns="http://www.w3.org/2000/svg" viewBox="0 0 1077.71 477.36"><defs><style>.b{fill:#f06847;}.c{fill:#203931;}</style></defs><path class="c" d="M238.8,455.84c0,3.56-.66,6.63-1.98,9.21s-3.06,4.71-5.22,6.37c-2.16,1.66-4.6,2.89-7.32,3.67-2.72.78-5.47,1.18-8.27,1.18h-14.07c-.6,0-1.09-.49-1.09-1.09v-38.47c0-.6.49-1.09,1.09-1.09h13.61c2.87,0,5.7.34,8.5,1,2.79.67,5.28,1.78,7.46,3.33,2.18,1.55,3.94,3.63,5.28,6.23,1.34,2.6,2.01,5.82,2.01,9.64ZM228.58,455.84c0-2.3-.37-4.2-1.12-5.71-.75-1.51-1.74-2.72-2.99-3.62-1.24-.9-2.66-1.54-4.25-1.92-1.59-.38-3.22-.57-4.91-.57h-3.79c-.6,0-1.09.49-1.09,1.09v21.59c0,.6.49,1.09,1.09,1.09h3.56c1.76,0,3.45-.2,5.08-.6,1.63-.4,3.06-1.06,4.31-1.98,1.24-.92,2.24-2.14,2.99-3.67.75-1.53,1.12-3.42,1.12-5.68Z"/><path class="c" d="M247.01,475.18v-38.47c0-.6.49-1.09,1.09-1.09h7.7c.6,0,1.09.49,1.09,1.09v38.47c0,.6-.49,1.09-1.09,1.09h-7.7c-.6,0-1.09-.49-1.09-1.09Z"/><path class="c" d="M296.12,476.33c-2.66.65-5.56.98-8.7.98s-6.25-.52-8.98-1.55c-2.74-1.03-5.09-2.49-7.06-4.36-1.97-1.87-3.51-4.12-4.62-6.75-1.11-2.62-1.66-5.54-1.66-8.75s.56-6.2,1.69-8.84c1.13-2.64,2.69-4.89,4.68-6.75,1.99-1.86,4.32-3.28,7-4.28,2.68-.99,5.57-1.49,8.67-1.49s6.2.49,8.96,1.46c2.32.82,4.28,1.88,5.87,3.18.48.39.53,1.11.12,1.57l-4.68,5.33c-.4.46-1.12.52-1.57.11-.83-.76-1.84-1.4-3.01-1.93-1.57-.71-3.35-1.06-5.34-1.06-1.72,0-3.31.32-4.76.95-1.45.63-2.72,1.51-3.79,2.64-1.07,1.13-1.9,2.47-2.5,4.02-.59,1.55-.89,3.24-.89,5.08s.27,3.6.8,5.17c.54,1.57,1.33,2.92,2.38,4.05,1.05,1.13,2.35,2.01,3.9,2.64,1.55.63,3.32.95,5.31.95,1.15,0,2.24-.09,3.27-.26.75-.13,1.46-.31,2.13-.54.44-.16.74-.57.74-1.04v-5.56c0-.61-.49-1.1-1.1-1.1h-5.56c-.61,0-1.1-.49-1.1-1.1v-5.73c0-.61.49-1.1,1.1-1.1h14.57c.61,0,1.1.49,1.1,1.1v19.75c0,.42-.23.8-.61.98-1.85.9-3.97,1.64-6.37,2.22Z"/><path class="c" d="M312.85,475.18v-38.45c0-.61.49-1.1,1.1-1.1h7.68c.61,0,1.1.49,1.1,1.1v38.45c0,.61-.49,1.1-1.1,1.1h-7.68c-.61,0-1.1-.49-1.1-1.1Z"/><path class="c" d="M350.23,445.11v30.07c0,.61-.49,1.1-1.1,1.1h-7.62c-.61,0-1.1-.49-1.1-1.1v-30.07c0-.61-.49-1.1-1.1-1.1h-9.29c-.61,0-1.1-.49-1.1-1.1v-6.19c0-.61.49-1.1,1.1-1.1h30.59c.61,0,1.1.49,1.1,1.1v6.19c0,.61-.49,1.1-1.1,1.1h-9.29c-.61,0-1.1.49-1.1,1.1Z"/><path class="c" d="M391.74,475.58l-2.61-6.59c-.17-.42-.57-.69-1.02-.69h-14.22c-.46,0-.87.28-1.03.71l-2.45,6.55c-.16.43-.57.71-1.03.71h-8.27c-.78,0-1.31-.8-1.01-1.52l16.13-38.45c.17-.41.57-.67,1.01-.67h8.07c.44,0,.84.27,1.01.68l15.97,38.45c.3.72-.23,1.52-1.01,1.52h-8.52c-.45,0-.85-.27-1.02-.69ZM380.07,449.29l-3.58,9.67c-.27.72.26,1.48,1.03,1.48h7.08c.76,0,1.29-.75,1.03-1.47l-3.5-9.67c-.35-.96-1.7-.97-2.06,0Z"/><path class="c" d="M408.03,475.18v-38.45c0-.61.49-1.1,1.1-1.1h7.68c.61,0,1.1.49,1.1,1.1v29.9c0,.61.49,1.1,1.1,1.1h13.54c.61,0,1.1.49,1.1,1.1v6.36c0,.61-.49,1.1-1.1,1.1h-23.41c-.61,0-1.1-.49-1.1-1.1Z"/><path class="c" d="M490.85,475.58l-2.61-6.59c-.17-.42-.57-.69-1.02-.69h-14.22c-.46,0-.87.28-1.03.71l-2.45,6.55c-.16.43-.57.71-1.03.71h-8.27c-.78,0-1.31-.8-1.01-1.52l16.13-38.45c.17-.41.57-.67,1.01-.67h8.07c.44,0,.84.27,1.01.68l15.97,38.45c.3.72-.23,1.52-1.01,1.52h-8.52c-.45,0-.85-.27-1.02-.69ZM479.17,449.29l-3.58,9.67c-.27.72.26,1.48,1.03,1.48h7.08c.76,0,1.29-.75,1.03-1.47l-3.5-9.67c-.35-.96-1.7-.97-2.06,0Z"/><path class="c" d="M529.43,445.32c-.43.46-1.14.45-1.6.01-.71-.68-1.55-1.25-2.52-1.7-1.36-.63-2.67-.95-3.93-.95-.65,0-1.31.06-1.98.17-.67.12-1.27.34-1.81.66-.54.33-.99.75-1.35,1.26-.36.52-.55,1.18-.55,1.98,0,.69.14,1.26.43,1.72.29.46.71.86,1.26,1.21.55.34,1.21.66,1.98.95.76.29,1.63.58,2.58.89,1.38.46,2.81.97,4.31,1.52,1.49.56,2.85,1.29,4.08,2.21,1.22.92,2.24,2.06,3.04,3.42.8,1.36,1.21,3.05,1.21,5.08,0,2.33-.43,4.35-1.29,6.06-.86,1.7-2.02,3.11-3.47,4.22-1.45,1.11-3.12,1.93-4.99,2.47-1.88.54-3.81.8-5.8.8-2.91,0-5.72-.51-8.44-1.52-2.32-.87-4.3-2.04-5.95-3.54-.46-.42-.48-1.14-.04-1.59l4.82-4.9c.45-.45,1.16-.44,1.62,0,.87.85,1.92,1.59,3.15,2.21,1.63.82,3.24,1.23,4.85,1.23.73,0,1.43-.08,2.12-.23.69-.15,1.29-.4,1.81-.75.52-.34.93-.8,1.23-1.38.31-.57.46-1.26.46-2.07s-.19-1.42-.57-1.95c-.38-.54-.93-1.02-1.64-1.46-.71-.44-1.59-.84-2.64-1.21-1.05-.36-2.25-.76-3.59-1.18-1.3-.42-2.57-.92-3.82-1.49-1.24-.57-2.35-1.31-3.33-2.21-.98-.9-1.76-1.99-2.35-3.27-.59-1.28-.89-2.84-.89-4.68,0-2.26.46-4.19,1.38-5.8s2.12-2.93,3.62-3.96c1.49-1.03,3.18-1.79,5.05-2.27,1.87-.48,3.77-.72,5.68-.72,2.3,0,4.64.42,7.03,1.26,2,.7,3.79,1.69,5.38,2.96.5.4.55,1.15.11,1.62l-4.64,4.89Z"/><path class="c" d="M565.08,445.32c-.43.46-1.14.45-1.6.01-.71-.68-1.55-1.25-2.52-1.7-1.36-.63-2.67-.95-3.93-.95-.65,0-1.31.06-1.98.17-.67.12-1.27.34-1.81.66-.54.33-.99.75-1.35,1.26-.36.52-.55,1.18-.55,1.98,0,.69.14,1.26.43,1.72.29.46.71.86,1.26,1.21.55.34,1.21.66,1.98.95.76.29,1.63.58,2.58.89,1.38.46,2.81.97,4.31,1.52,1.49.56,2.85,1.29,4.08,2.21,1.22.92,2.24,2.06,3.04,3.42.8,1.36,1.21,3.05,1.21,5.08,0,2.33-.43,4.35-1.29,6.06-.86,1.7-2.02,3.11-3.47,4.22-1.45,1.11-3.12,1.93-4.99,2.47-1.88.54-3.81.8-5.8.8-2.91,0-5.72-.51-8.44-1.52-2.32-.87-4.3-2.04-5.95-3.54-.46-.42-.48-1.14-.04-1.59l4.82-4.9c.45-.45,1.16-.44,1.62,0,.87.85,1.92,1.59,3.15,2.21,1.63.82,3.24,1.23,4.85,1.23.73,0,1.43-.08,2.12-.23.69-.15,1.29-.4,1.81-.75.52-.34.93-.8,1.23-1.38.31-.57.46-1.26.46-2.07s-.19-1.42-.57-1.95c-.38-.54-.93-1.02-1.64-1.46-.71-.44-1.59-.84-2.64-1.21-1.05-.36-2.25-.76-3.59-1.18-1.3-.42-2.57-.92-3.82-1.49-1.24-.57-2.35-1.31-3.33-2.21-.98-.9-1.76-1.99-2.35-3.27-.59-1.28-.89-2.84-.89-4.68,0-2.26.46-4.19,1.38-5.8s2.12-2.93,3.62-3.96c1.49-1.03,3.18-1.79,5.05-2.27,1.87-.48,3.77-.72,5.68-.72,2.3,0,4.64.42,7.03,1.26,2,.7,3.79,1.69,5.38,2.96.5.4.55,1.15.11,1.62l-4.64,4.89Z"/><path class="c" d="M578.43,475.18v-38.45c0-.61.49-1.1,1.1-1.1h25.13c.61,0,1.1.49,1.1,1.1v6.07c0,.61-.49,1.1-1.1,1.1h-15.66c-.61,0-1.1.49-1.1,1.1v5.5c0,.61.49,1.1,1.1,1.1h14.68c.61,0,1.1.49,1.1,1.1v5.67c0,.61-.49,1.1-1.1,1.1h-14.68c-.61,0-1.1.49-1.1,1.1v6.25c0,.61.49,1.1,1.1,1.1h16.69c.61,0,1.1.49,1.1,1.1v6.19c0,.61-.49,1.1-1.1,1.1h-26.17c-.61,0-1.1-.49-1.1-1.1Z"/><path class="c" d="M632.39,445.11v30.07c0,.61-.49,1.1-1.1,1.1h-7.62c-.61,0-1.1-.49-1.1-1.1v-30.07c0-.61-.49-1.1-1.1-1.1h-9.29c-.61,0-1.1-.49-1.1-1.1v-6.19c0-.61.49-1.1,1.1-1.1h30.59c.61,0,1.1.49,1.1,1.1v6.19c0,.61-.49,1.1-1.1,1.1h-9.29c-.61,0-1.1.49-1.1,1.1Z"/><path class="c" d="M705.55,448.14c0,2.37-.44,4.37-1.32,6-.88,1.63-2.07,2.94-3.56,3.93-1.49,1-3.21,1.72-5.17,2.18-1.95.46-3.98.69-6.08.69h-3.78c-.61,0-1.1.49-1.1,1.1v13.13c0,.61-.49,1.1-1.1,1.1h-7.62c-.61,0-1.1-.49-1.1-1.1v-38.45c0-.61.49-1.1,1.1-1.1h13.83c2.22,0,4.3.22,6.23.66,1.93.44,3.62,1.15,5.05,2.12,1.44.98,2.56,2.26,3.39,3.85.82,1.59,1.23,3.55,1.23,5.88ZM695.73,448.2c0-.96-.19-1.74-.57-2.35-.38-.61-.9-1.09-1.55-1.44-.65-.34-1.39-.57-2.21-.69-.82-.11-1.67-.17-2.55-.17h-3.21c-.61,0-1.1.49-1.1,1.1v7.39c0,.61.49,1.1,1.1,1.1h3.04c.92,0,1.8-.08,2.64-.23.84-.15,1.6-.42,2.27-.8.67-.38,1.2-.89,1.58-1.52.38-.63.57-1.43.57-2.38Z"/><path class="c" d="M734.63,475.7l-8.2-14.99c-.19-.35-.56-.57-.96-.57h-1.6c-.61,0-1.1.49-1.1,1.1v13.94c0,.61-.49,1.1-1.1,1.1h-7.39c-.61,0-1.1-.49-1.1-1.1v-38.45c0-.61.49-1.1,1.1-1.1h14.4c1.95,0,3.85.2,5.71.6,1.86.4,3.52,1.08,4.99,2.04,1.47.96,2.65,2.22,3.53,3.79.88,1.57,1.32,3.52,1.32,5.86,0,2.76-.75,5.07-2.24,6.95-1.49,1.88-3.56,3.21-6.2,4.02h0s9.6,15.73,9.6,15.73c.45.73-.08,1.67-.94,1.67h-8.88c-.4,0-.77-.22-.96-.57ZM734.54,448.09c0-.96-.2-1.73-.61-2.33-.4-.59-.92-1.05-1.56-1.38-.64-.32-1.35-.55-2.13-.66-.79-.11-1.55-.17-2.28-.17h-4.15c-.61,0-1.1.49-1.1,1.1v7.28c0,.61.49,1.1,1.1,1.1h3.58c.81,0,1.63-.07,2.48-.2.85-.13,1.61-.37,2.31-.72.69-.34,1.26-.84,1.7-1.49.44-.65.66-1.49.66-2.53Z"/><path class="c" d="M795.33,455.78c0,3.21-.55,6.15-1.66,8.81-1.11,2.66-2.65,4.94-4.62,6.83-1.97,1.89-4.31,3.36-7.03,4.39-2.72,1.03-5.66,1.55-8.84,1.55s-6.11-.52-8.81-1.55c-2.7-1.03-5.03-2.5-7-4.39-1.97-1.89-3.51-4.17-4.62-6.83-1.11-2.66-1.66-5.6-1.66-8.81s.55-6.19,1.66-8.81c1.11-2.62,2.65-4.85,4.62-6.69,1.97-1.84,4.31-3.25,7-4.25,2.7-.99,5.63-1.49,8.81-1.49s6.12.5,8.84,1.49c2.72,1,5.06,2.41,7.03,4.25,1.97,1.84,3.51,4.07,4.62,6.69,1.11,2.62,1.66,5.56,1.66,8.81ZM784.83,455.78c0-1.76-.29-3.41-.86-4.94-.57-1.53-1.37-2.84-2.38-3.93-1.01-1.09-2.24-1.95-3.67-2.58-1.43-.63-3.01-.95-4.74-.95s-3.29.32-4.71.95c-1.42.63-2.64,1.49-3.67,2.58-1.03,1.09-1.83,2.4-2.38,3.93-.56,1.53-.83,3.18-.83,4.94s.29,3.53.86,5.08,1.37,2.88,2.38,3.99c1.01,1.11,2.23,1.98,3.65,2.61,1.42.63,2.99.95,4.71.95s3.29-.32,4.71-.95c1.42-.63,2.64-1.5,3.67-2.61,1.03-1.11,1.84-2.44,2.41-3.99s.86-3.24.86-5.08Z"/><path class="c" d="M841.49,455.84c0,3.56-.66,6.63-1.98,9.21-1.32,2.58-3.06,4.71-5.22,6.37-2.16,1.66-4.6,2.89-7.32,3.67-2.72.78-5.47,1.18-8.27,1.18h-14.06c-.61,0-1.1-.49-1.1-1.1v-38.45c0-.61.49-1.1,1.1-1.1h13.6c2.87,0,5.7.34,8.5,1,2.79.67,5.28,1.78,7.46,3.33,2.18,1.55,3.94,3.63,5.28,6.23,1.34,2.6,2.01,5.82,2.01,9.64ZM831.27,455.84c0-2.3-.37-4.2-1.12-5.71-.75-1.51-1.74-2.72-2.99-3.62-1.24-.9-2.66-1.54-4.25-1.92-1.59-.38-3.22-.57-4.91-.57h-3.78c-.61,0-1.1.49-1.1,1.1v21.57c0,.61.49,1.1,1.1,1.1h3.55c1.76,0,3.45-.2,5.08-.6,1.63-.4,3.06-1.06,4.31-1.98,1.24-.92,2.24-2.14,2.99-3.67.75-1.53,1.12-3.42,1.12-5.68Z"/><path class="c" d="M882.91,467.63c-.82,2.01-2,3.73-3.53,5.17-1.53,1.43-3.38,2.55-5.54,3.36-2.16.8-4.56,1.21-7.2,1.21s-5.09-.4-7.23-1.21c-2.14-.8-3.96-1.92-5.45-3.36-1.49-1.44-2.64-3.16-3.44-5.17-.8-2.01-1.21-4.24-1.21-6.69v-24.22c0-.61.49-1.1,1.1-1.1h7.57c.61,0,1.1.49,1.1,1.1v23.42c0,1.11.14,2.16.43,3.16.29,1,.73,1.89,1.32,2.67.59.78,1.38,1.41,2.35,1.87.98.46,2.15.69,3.53.69s2.55-.23,3.53-.69c.98-.46,1.77-1.08,2.38-1.87.61-.78,1.05-1.67,1.32-2.67.27-.99.4-2.05.4-3.16v-23.42c0-.61.49-1.1,1.1-1.1h7.62c.61,0,1.1.49,1.1,1.1v24.22c0,2.45-.41,4.68-1.23,6.69Z"/><path class="c" d="M922.89,475.55c-2.64,1.21-5.68,1.81-9.13,1.81-3.14,0-6.04-.52-8.7-1.55-2.66-1.03-4.97-2.5-6.92-4.39-1.95-1.89-3.48-4.16-4.59-6.8-1.11-2.64-1.66-5.55-1.66-8.73s.56-6.2,1.69-8.84c1.13-2.64,2.69-4.89,4.68-6.75,1.99-1.86,4.32-3.28,7-4.28,2.68-.99,5.57-1.49,8.67-1.49,2.87,0,5.69.51,8.47,1.52,2.38.87,4.37,2.08,5.98,3.64.44.43.44,1.13.01,1.56l-5.06,5.06c-.44.44-1.15.41-1.58-.04-.8-.83-1.75-1.47-2.87-1.93-1.49-.61-3.02-.92-4.59-.92-1.72,0-3.3.32-4.74.95-1.43.63-2.67,1.5-3.7,2.61-1.03,1.11-1.84,2.42-2.41,3.93-.57,1.51-.86,3.17-.86,4.97s.29,3.52.86,5.05c.57,1.53,1.37,2.84,2.38,3.93,1.01,1.09,2.23,1.94,3.65,2.55,1.42.61,2.97.92,4.65.92,1.95,0,3.65-.38,5.11-1.15,1.09-.57,2.02-1.28,2.79-2.11.42-.45,1.11-.5,1.56-.08l5.19,4.89c.45.42.46,1.13.03,1.57-1.65,1.68-3.62,3.04-5.9,4.08Z"/><path class="c" d="M952.51,445.1v30.08c0,.6-.49,1.09-1.09,1.09h-7.63c-.6,0-1.09-.49-1.09-1.09v-30.08c0-.6-.49-1.09-1.09-1.09h-9.3c-.6,0-1.09-.49-1.09-1.09v-6.2c0-.6.49-1.09,1.09-1.09h30.59c.6,0,1.09.49,1.09,1.09v6.2c0,.6-.49,1.09-1.09,1.09h-9.3c-.6,0-1.09.49-1.09,1.09Z"/><path class="c" d="M970.19,475.18v-38.46c0-.6.49-1.09,1.09-1.09h7.69c.6,0,1.09.49,1.09,1.09v38.46c0,.6-.49,1.09-1.09,1.09h-7.69c-.6,0-1.09-.49-1.09-1.09Z"/><path class="c" d="M1032.53,455.78c0,3.21-.55,6.15-1.66,8.81-1.11,2.66-2.65,4.94-4.62,6.83-1.97,1.89-4.31,3.36-7.03,4.39-2.72,1.03-5.66,1.55-8.84,1.55s-6.11-.52-8.81-1.55c-2.7-1.03-5.03-2.5-7-4.39-1.97-1.89-3.51-4.17-4.62-6.83-1.11-2.66-1.66-5.6-1.66-8.81s.55-6.19,1.66-8.81c1.11-2.62,2.65-4.85,4.62-6.69,1.97-1.84,4.31-3.25,7-4.25,2.7-.99,5.63-1.49,8.81-1.49s6.12.5,8.84,1.49c2.72,1,5.06,2.41,7.03,4.25,1.97,1.84,3.51,4.07,4.62,6.69,1.11,2.62,1.66,5.56,1.66,8.81ZM1022.03,455.78c0-1.76-.29-3.41-.86-4.94-.57-1.53-1.37-2.84-2.38-3.93-1.01-1.09-2.24-1.95-3.67-2.58-1.43-.63-3.01-.95-4.74-.95s-3.29.32-4.71.95c-1.42.63-2.64,1.49-3.67,2.58-1.03,1.09-1.83,2.4-2.38,3.93-.56,1.53-.83,3.18-.83,4.94s.29,3.53.86,5.08,1.37,2.88,2.38,3.99c1.01,1.11,2.23,1.98,3.65,2.61,1.42.63,2.99.95,4.71.95s3.29-.32,4.71-.95c1.42-.63,2.64-1.5,3.67-2.61,1.03-1.11,1.84-2.44,2.41-3.99s.86-3.24.86-5.08Z"/><path class="c" d="M1067.19,476.27c-.38,0-.73-.2-.93-.52l-16.04-26.06h-.17l.22,25.48c0,.61-.49,1.1-1.09,1.1h-7.34c-.6,0-1.09-.49-1.09-1.09v-38.46c0-.6.49-1.09,1.09-1.09h9.49c.38,0,.73.2.93.52l15.98,26h.17l-.22-25.42c0-.61.49-1.1,1.09-1.1h7.34c.6,0,1.09.49,1.09,1.09v38.46c0,.6-.49,1.09-1.09,1.09h-9.43Z"/><path class="c" d="M150.22,258.29c-7.21-5.17-15.03-9.38-23.54-12.64-8.51-3.21-16.64-6.08-24.33-8.51-7.51-2.43-12.9-4.43-16.24-6.08-3.35-1.61-5.04-4.04-5.04-7.25,0-3.47,1.65-5.95,4.87-7.47,3.26-1.52,7.51-2.26,12.77-2.26,5.69,0,12.07,1.56,19.15,4.69,4.34,1.95,8.3,4.43,11.82,7.47,3.74,3.21,9.3,3.08,12.77-.43l31.32-31.97c3.95-4,3.39-10.51-1.09-13.94-9.16-7.04-19.42-12.68-30.67-16.9-14.68-5.43-29.15-8.17-43.31-8.17-10.51,0-21.15,1.3-31.88,3.95-10.77,2.65-20.41,6.95-29.01,12.94-8.65,5.95-15.68,13.64-21.15,22.98-5.47,9.34-8.21,20.68-8.21,34.1,0,9.51,1.52,17.68,4.56,24.5,3.04,6.78,7.17,12.64,12.34,17.51,5.17,4.86,11.08,8.95,17.77,12.29,6.69,3.39,13.68,6.25,20.98,8.69,7.47,2.43,13.68,4.56,18.68,6.39,4.95,1.87,8.86,3.52,11.69,5.04,2.82,1.52,4.82,3,5.95,4.43,1.09,1.39,1.65,3.13,1.65,5.17,0,3.87-1.65,6.47-5,7.91-3.34,1.43-7.04,2.13-11.12,2.13-8.91,0-17.55-2.13-25.98-6.39-5.26-2.65-9.9-5.56-13.86-8.73-3.82-3.04-9.29-2.65-12.6.96l-31.06,33.75c-3.78,4.08-3.08,10.56,1.43,13.86,3.26,2.3,6.69,4.52,10.34,6.6,6.91,3.95,14.25,7.38,22.07,10.29,7.78,2.91,15.9,5.13,24.28,6.65,8.43,1.52,16.98,2.26,25.67,2.26,10.95,0,21.67-1.56,32.23-4.69,10.51-3.17,19.98-7.91,28.41-14.29,8.38-6.39,15.2-14.38,20.37-24.02,5.13-9.6,7.73-20.89,7.73-33.88,0-11.12-2.35-20.46-6.99-27.93-4.65-7.51-10.6-13.86-17.77-18.98Z"/><path class="c" d="M397.55,160.91h-54.07c-5.14,0-9.32,4.13-9.32,9.23v54.4c0,5.11-4.13,9.23-9.23,9.23h-40.41c-5.11,0-9.29-4.13-9.29-9.23v-54.4c0-5.11-4.13-9.23-9.26-9.23h-53.47c-5.11,0-9.29,4.13-9.29,9.23v196.61c0,5.11,4.18,9.23,9.29,9.23h53.77c5.14,0,9.26-4.13,9.26-9.23v-63.2c0-5.14,4.18-9.32,9.29-9.32h40.41c5.11,0,9.26,4.18,9.26,9.32v63.2c0,5.11,4.15,9.23,9.29,9.23h53.77c5.14,0,9.26-4.13,9.26-9.23v-196.61c0-5.11-4.13-9.23-9.26-9.23Z"/><path class="c" d="M667.21,220.58c-6.08-13.86-14.46-25.67-25.24-35.4-10.73-9.73-23.37-17.2-37.97-22.5-14.59-5.26-30.36-7.86-47.39-7.86s-32.84,2.61-47.39,7.86c-14.59,5.3-27.24,12.77-37.83,22.5-10.64,9.73-18.98,21.54-25.06,35.4-6.08,13.9-9.12,29.45-9.12,46.65,0,12.21,1.52,23.63,4.6,34.32,1.22,4.39,2.74,8.64,4.52,12.77,2.04,4.73,4.3,9.21,6.86,13.47,5.04,8.56,11.08,16.16,18.2,22.85,10.6,10.03,23.24,17.77,37.83,23.24,14.55,5.47,30.36,8.21,47.39,8.21s32.79-2.74,47.39-8.21c14.6-5.47,27.24-13.2,37.97-23.24,10.77-10.03,19.16-22.11,25.24-36.31,6.08-14.16,9.12-29.88,9.12-47.09s-3.04-32.75-9.12-46.65ZM526.08,233.66c3.74-3.95,8.25-7.04,13.51-9.25,5.26-2.26,10.95-3.34,17.03-3.34s11.68,1.09,16.85,3.34c5.17,2.22,9.69,5.3,13.51,9.25,3.87,3.95,6.86,8.82,8.99,14.59,2.13,5.78,3.17,12.08,3.17,18.98s-1.04,13.55-3.17,19.46c-2.13,5.86-5.13,10.9-8.99,15.16-3.52,3.91-7.64,7.04-12.29,9.34-.39.17-.83.39-1.22.56-5.17,2.3-10.77,3.47-16.85,3.47s-11.77-1.17-17.03-3.47c-5.26-2.35-9.77-5.65-13.51-9.9-3.78-4.26-6.69-9.3-8.82-15.16-2.13-5.91-3.22-12.38-3.22-19.46s1.09-13.2,3.22-18.98c2.04-5.52,4.78-10.16,8.34-14.03.13-.17.31-.39.48-.56Z"/><path class="c" d="M894.43,361.84l-40.44-64.59c-2.69-4.34-1.48-10.08,2.87-12.73,8.25-5,14.81-11.34,19.72-18.98,6.47-9.99,9.73-21.59,9.73-34.79s-2.56-24.85-7.6-33.88c-5.08-8.99-11.68-16.2-19.89-21.54-8.21-5.39-17.55-9.12-27.97-11.25-10.42-2.13-20.94-3.17-31.45-3.17h-83.4c-5.13,0-9.3,4.13-9.3,9.25v196.6c0,5.13,4.17,9.25,9.3,9.25h51.65c5.12,0,9.25-4.13,9.25-9.25v-67.63h2.13l38.62,72.02c1.61,3,4.74,4.86,8.17,4.86h60.77c7.3,0,11.73-7.99,7.86-14.16ZM812.94,243.08c-1.74,2.3-3.82,4.13-6.34,5.47-2.52,1.3-5.21,2.17-8.12,2.56-2.95.43-5.6.61-7.99.61h-4.91c-5.13,0-9.3-4.13-9.3-9.25v-16.12c0-5.13,4.17-9.25,9.3-9.25h7.9c2.22,0,4.6.13,7.25.43,2.61.3,5,1.04,7.21,2.13,2.21,1.13,4.04,2.78,5.43,5.04,1.43,2.22,2.13,5.26,2.13,9.08s-.87,6.95-2.56,9.3Z"/><path class="c" d="M1067.52,315.84h-66.54c-5.08,0-9.25-4.13-9.25-9.25v-1.52c0-5.13,4.17-9.3,9.25-9.3h56.51c5.12,0,9.29-4.13,9.29-9.25v-37.66c0-5.13-4.17-9.3-9.29-9.3h-56.51c-2.52,0-4.86-1.04-6.52-2.69-1.69-1.69-2.74-4-2.74-6.56,0-5.13,4.17-9.25,9.25-9.25h61.38c5.12,0,9.29-4.17,9.29-9.3v-41.61c0-5.13-4.17-9.25-9.29-9.25h-129.44c-5.08,0-9.25,4.13-9.25,9.25v196.6c0,5.13,4.17,9.25,9.25,9.25h134.61c5.13,0,9.3-4.13,9.3-9.25v-41.66c0-5.08-4.17-9.25-9.3-9.25Z"/><path class="b" d="M160.4,59.16c0-9.06,1.6-17.24,4.8-24.54,3.2-7.3,7.59-13.51,13.19-18.63,5.6-5.12,12.23-9.06,19.91-11.83,7.67-2.77,15.99-4.16,24.94-4.16s17.27,1.39,24.95,4.16c7.67,2.77,14.33,6.72,19.99,11.83,5.65,5.12,10.07,11.33,13.27,18.63,3.2,7.3,4.8,15.49,4.8,24.54s-1.6,17.33-4.8,24.79c-3.2,7.46-7.62,13.83-13.27,19.11-5.65,5.28-12.31,9.35-19.99,12.23-7.67,2.88-15.99,4.32-24.95,4.32s-17.27-1.44-24.94-4.32c-7.67-2.88-14.31-6.96-19.91-12.23-5.6-5.28-9.99-11.65-13.19-19.11-3.2-7.46-4.8-15.72-4.8-24.79ZM200.86,59.16c0,3.73.56,7.14,1.68,10.23,1.12,3.09,2.66,5.76,4.64,7.99,1.97,2.24,4.34,3.97,7.12,5.2,2.77,1.23,5.76,1.84,8.95,1.84s6.16-.61,8.88-1.84c2.72-1.22,5.09-2.96,7.11-5.2,2.03-2.24,3.6-4.9,4.72-7.99,1.12-3.09,1.68-6.5,1.68-10.23s-.56-6.96-1.68-9.99c-1.12-3.04-2.69-5.6-4.72-7.67-2.03-2.08-4.39-3.7-7.11-4.88-2.72-1.17-5.68-1.76-8.88-1.76s-6.18.59-8.95,1.76c-2.77,1.17-5.14,2.8-7.12,4.88-1.97,2.08-3.52,4.64-4.64,7.67-1.12,3.04-1.68,6.37-1.68,9.99Z"/><path class="b" d="M308.58,3.2h27.83c2.3,0,4.41,1.24,5.54,3.24l30.48,54.17h.64l-1.42-50.87c-.1-3.58,2.77-6.53,6.35-6.53h23.25c3.51,0,6.35,2.84,6.35,6.35v100.5c0,3.51-2.84,6.35-6.35,6.35h-28.84c-2.27,0-4.36-1.21-5.5-3.17l-29.5-50.88h-.64l1.41,47.5c.11,3.58-2.77,6.54-6.35,6.54h-23.24c-3.51,0-6.35-2.84-6.35-6.35V9.55c0-3.51,2.84-6.35,6.35-6.35Z"/></svg>